<?xml version="1.0" encoding="utf-8"?>
<!-- Generator: Adobe Illustrator 24.1.0, SVG Export Plug-In . SVG Version: 6.00 Build 0)  -->
<svg version="1.1" id="圖層_1" xmlns="http://www.w3.org/2000/svg" xmlns:xlink="http://www.w3.org/1999/xlink" x="0px" y="0px"
	 viewBox="0 0 253.4 298.1" style="enable-background:new 0 0 253.4 298.1;" xml:space="preserve">
<style type="text/css">
	.st0{fill:#AFCACE;}
	.st1{fill:#FF634A;}
	.st2{fill:#828282;}
</style>
<g id="圖層_3">
	<path class="st0" d="M204.1,139.8c-5.4-7.2-14-15.8-25-24.8c0-0.3,0-0.5,0-0.8c0-5.9-1.1-11.8-3.2-17.4c8.5-12.8,11-22.4,6.9-27
		c-3.9-4.4-13.2-3.4-26.3,2.9c-14.6-9.4-33.1-10.5-48.6-2.8c-15.8-7.7-30.1-13-41.2-15.4c-5.7-1.2-10.5-1.7-14.2-1.3
		c-4.1,0.4-6.9,1.8-8.3,4.1c-2.6,4.4-0.3,11.2,7,20.2c6.6,8.3,17,17.9,30,27.9c-0.5,2.9-0.8,5.8-0.8,8.8c0,7.1,1.5,14.2,4.5,20.7
		c-9.6,13.9-12.6,24.1-8.3,29c1.6,1.8,4.1,2.7,7.4,2.7c5.7,0,13.8-2.8,23.8-8.2c6.8,3.4,14.3,5.2,22,5.1c11.5,0,22.6-4,31.4-11.3
		l0,0c15.9,6.6,28.6,9.9,37.1,9.9c5.5,0,9.3-1.4,11-4.3C211.8,153.8,210,147.8,204.1,139.8z M176.7,114.3l0,1.1l0,0
		c0,0.4,0,0.8,0,1.2c0,0.1,0,0.3,0,0.4c0,0.3,0,0.5,0,0.8c0,0.2,0,0.4,0,0.5c0,0.2,0,0.5-0.1,0.7c0,0.2,0,0.4,0,0.5
		c0,0.2,0,0.4-0.1,0.7c0,0.2,0,0.4-0.1,0.6c0,0.2,0,0.4-0.1,0.7c0,0.2,0,0.4-0.1,0.6c0,0.2-0.1,0.4-0.1,0.6c0,0.2-0.1,0.4-0.1,0.6
		c0,0.2-0.1,0.4-0.1,0.6c0,0.2-0.1,0.4-0.1,0.6c0,0.2-0.1,0.4-0.1,0.6c0,0.2-0.1,0.4-0.1,0.6c0,0.2-0.1,0.4-0.2,0.6
		c0,0.2-0.1,0.4-0.2,0.6c0,0.2-0.1,0.4-0.2,0.6c0,0.2-0.1,0.4-0.2,0.6s-0.1,0.4-0.2,0.6c0,0.2-0.1,0.4-0.2,0.6
		c0,0.2-0.1,0.4-0.2,0.6l-0.2,0.6c-0.1,0.2-0.1,0.4-0.2,0.6c-0.1,0.2-0.1,0.4-0.2,0.5c-0.1,0.2-0.1,0.4-0.2,0.6
		c-0.1,0.2-0.1,0.4-0.2,0.5l-0.3,0.6c-0.1,0.2-0.2,0.4-0.2,0.5c-0.1,0.2-0.2,0.4-0.3,0.6s-0.2,0.4-0.3,0.5c-0.1,0.2-0.2,0.4-0.3,0.6
		c-0.1,0.2-0.2,0.4-0.3,0.5l-0.3,0.6l-0.3,0.5l-0.3,0.5c-0.1,0.2-0.2,0.4-0.3,0.5c-0.1,0.2-0.2,0.4-0.3,0.5
		c-0.1,0.2-0.2,0.4-0.3,0.5l-0.4,0.5c-0.1,0.2-0.2,0.3-0.3,0.5s-0.2,0.4-0.4,0.5s-0.2,0.3-0.4,0.5c-0.1,0.2-0.2,0.4-0.4,0.5
		l-0.4,0.5c-0.1,0.2-0.3,0.4-0.4,0.5l-0.4,0.5c-0.1,0.2-0.3,0.4-0.4,0.5c-0.1,0.2-0.3,0.3-0.4,0.4c-0.1,0.1-0.3,0.3-0.4,0.5
		c-0.1,0.2-0.3,0.3-0.4,0.4l-0.4,0.5l-0.4,0.4l-0.4,0.5l-0.4,0.4l-0.4,0.5c-0.1,0.1-0.3,0.3-0.4,0.4c-0.2,0.1-0.3,0.3-0.4,0.4
		l-0.4,0.4c-0.2,0.1-0.3,0.3-0.5,0.4l-0.4,0.4l-0.2,0.2l-0.2-0.1c-0.8-0.4-1.7-0.7-2.5-1.1l-0.4-0.1c-0.9-0.4-1.8-0.7-2.6-1.1
		l-0.2-0.1c-0.9-0.4-1.8-0.8-2.7-1.2l-0.1,0c-0.9-0.4-1.8-0.8-2.7-1.3l-0.4-0.2c-0.9-0.4-1.8-0.8-2.6-1.3l-0.4-0.2
		c-0.9-0.4-1.8-0.8-2.6-1.3l-0.4-0.2c-0.9-0.4-1.8-0.9-2.6-1.4l-0.4-0.2c-0.9-0.5-1.8-1-2.8-1.5l0,0c2.2-1.8,4.5-3.7,6.7-5.7
		c9.1-8,17.4-16.6,24.1-24.8c2.4-2.9,4.6-5.8,6.5-8.5C175.8,104.1,176.6,109.1,176.7,114.3C176.7,114.2,176.7,114.3,176.7,114.3z
		 M181,71.3c3.1,3.5,0.7,11.9-6.2,22.8c-3.5-7.9-9.1-14.8-16.1-19.8C169.9,69,178,67.9,181,71.3z M155.7,75
		c7.8,5.2,14,12.7,17.5,21.4c-2.1,3.1-4.6,6.3-7.3,9.7c-6.6,8.1-14.9,16.6-23.9,24.6c-2.4,2.2-4.9,4.2-7.3,6.2
		c-6.4-3.4-12.8-7.1-19.2-11c-4.9-3-9.8-6.1-14.5-9.3c-6.1-4-11.9-8.2-17.3-12.3c2.9-13.9,12-25.7,24.7-32.2l0,0
		C123.5,64.5,141.6,65.6,155.7,75z M52.9,76c-6.4-8-8.8-14.2-6.8-17.5c1.3-2.1,4.4-3.2,8.8-3.2c10.5,0,28.8,5.6,50.3,15.9
		C93.3,78,84.7,89.4,81.6,102.8C69.2,93.1,59.3,83.9,52.9,76L52.9,76z M83.2,107c5.1,3.9,10.7,7.8,16.5,11.7
		c4.8,3.2,9.6,6.3,14.6,9.3c6.1,3.7,12.3,7.3,18.4,10.5c-8.5,6.8-17.1,12.7-25,17.1c-8.9-4.8-16.1-12.2-20.4-21.3
		c-3-6.3-4.6-13.2-4.6-20.3C82.7,111.8,82.9,109.4,83.2,107L83.2,107z M78.3,162.2c-3.3-3.7-0.4-13,7.7-25l0,0
		c0.3,0.5,0.5,0.9,0.7,1.4c0,0.1,0.1,0.1,0.1,0.2c0.3,0.4,0.5,0.9,0.8,1.3c0,0.1,0.1,0.2,0.1,0.3c0.3,0.4,0.5,0.8,0.8,1.3
		c0,0,0.1,0.1,0.1,0.2c0.3,0.4,0.6,0.8,0.9,1.3l0,0c0.3,0.4,0.6,0.8,1,1.3l0.1,0.2c0.3,0.4,0.6,0.8,1,1.2c0,0.1,0.1,0.1,0.2,0.2
		c0.4,0.4,0.7,0.8,1,1.1l0.1,0.1c0.4,0.4,0.7,0.7,1.1,1.1l0.1,0.1c0.4,0.4,0.7,0.7,1.1,1.1l0.2,0.2c0.4,0.4,0.7,0.7,1.1,1.1l0.2,0.2
		c0.4,0.4,0.8,0.7,1.2,1l0.1,0.1c0.4,0.3,0.8,0.7,1.2,1l0.1,0.1c0.4,0.3,0.8,0.6,1.2,0.9l0.2,0.2c0.4,0.3,0.8,0.6,1.2,0.9l0.2,0.1
		c0.4,0.3,0.9,0.6,1.3,0.8l0.1,0c0.4,0.3,0.9,0.5,1.3,0.8l0.1,0.1C91.7,164.2,81.8,166.1,78.3,162.2L78.3,162.2z M129.6,161.1
		c-6.7,0-13.3-1.4-19.5-4.2c7.8-4.5,16.3-10.4,24.7-17.1l0.3,0.1c0.9,0.5,1.8,0.9,2.7,1.4l0.4,0.2c0.9,0.5,1.8,1,2.8,1.4h0
		c0.9,0.5,1.8,0.9,2.8,1.4l0.3,0.2c0.9,0.4,1.8,0.8,2.6,1.3l0.4,0.2c0.8,0.4,1.7,0.8,2.6,1.2l0.4,0.2c0.9,0.4,1.7,0.8,2.6,1.2
		c0.1,0,0.2,0.1,0.4,0.1c0.9,0.4,1.8,0.8,2.6,1.2l0,0c0.9,0.4,1.8,0.7,2.6,1.1l0.2,0.1C150.4,157.6,140.2,161.1,129.6,161.1
		L129.6,161.1z M207.3,156.6c-1.8,2.9-6.9,3.8-14.9,2.7c-7.7-1.1-17.8-4.1-29.4-8.8l0.3-0.3l0.4-0.4l0.5-0.5l0.4-0.4
		c0.2-0.2,0.4-0.4,0.6-0.6l0.3-0.3c0.2-0.2,0.4-0.4,0.6-0.7l0.2-0.2c0.3-0.3,0.5-0.6,0.8-0.9c0-0.1,0.1-0.1,0.2-0.2
		c0.2-0.2,0.4-0.5,0.6-0.7l0.3-0.4c0.2-0.2,0.3-0.4,0.5-0.6l0.3-0.4c0.1-0.2,0.3-0.4,0.4-0.6c0.1-0.1,0.2-0.3,0.3-0.4
		c0.1-0.2,0.3-0.4,0.4-0.6l0.3-0.4l0.4-0.6c0.1-0.1,0.2-0.3,0.3-0.4c0.1-0.2,0.3-0.4,0.4-0.6c0.1-0.1,0.2-0.3,0.3-0.4
		c0.1-0.2,0.3-0.4,0.4-0.6c0.1-0.1,0.2-0.3,0.3-0.4c0.1-0.3,0.3-0.5,0.4-0.8c0-0.1,0.1-0.2,0.2-0.3c0.2-0.4,0.4-0.7,0.6-1.1
		c0.1-0.1,0.1-0.3,0.2-0.4c0.1-0.2,0.2-0.4,0.4-0.7l0.2-0.5c0.1-0.2,0.2-0.4,0.3-0.6l0.2-0.5c0.1-0.2,0.2-0.4,0.3-0.6l0.2-0.5
		l0.3-0.6c0.1-0.2,0.1-0.4,0.2-0.5c0.1-0.2,0.2-0.4,0.2-0.6c0.1-0.2,0.1-0.4,0.2-0.5c0.1-0.2,0.1-0.4,0.2-0.7c0-0.2,0.1-0.4,0.2-0.5
		c0.1-0.2,0.1-0.5,0.2-0.7c0-0.1,0.1-0.3,0.1-0.4c0.1-0.4,0.2-0.7,0.3-1c0-0.1,0-0.2,0.1-0.3c0.1-0.4,0.2-0.7,0.3-1.1
		c0-0.1,0.1-0.3,0.1-0.4c0-0.3,0.1-0.5,0.2-0.7c0-0.2,0.1-0.4,0.1-0.5c0-0.2,0.1-0.5,0.1-0.7l0.1-0.5c0-0.2,0.1-0.5,0.1-0.7
		c0-0.2,0-0.4,0.1-0.5c0-0.2,0.1-0.5,0.1-0.7c0-0.2,0-0.4,0.1-0.5c0-0.2,0-0.5,0.1-0.7c0-0.2,0-0.4,0-0.5c0-0.3,0-0.5,0.1-0.7
		c0-0.2,0-0.3,0-0.5c0,0,0-0.1,0-0.1C199.9,135.4,211.1,150.4,207.3,156.6L207.3,156.6z"/>
	<path class="st1" d="M122.5,94.9c-1.1-0.4-2.1-0.8-3.1-1.1c-0.8-0.3-1.7-0.4-2-1.4l0,0c-1.1-3.8-2.2-7.6-3.3-11.4h-0.4
		c-0.6,2.1-1.3,4.1-1.9,6.2c-0.4,0.9-0.7,1.8-1,2.8c-0.5,1.9-1.1,3.7-3.4,4l-10.2,2.9l0,0.4l9.4,2.8l0,0c3,0.4,4,2.5,4.6,5.1
		c0.1,0.7,0.5,1.4,0.8,2c0.5,2.3,1.3,4.5,2.2,6.6c1.2-4.2,2.3-8,3.4-11.8c1.2-1.9,3.5-1.5,5.1-2.5l7.8-2.3
		C127.7,96.4,125.2,95.2,122.5,94.9z"/>
	<path class="st1" d="M198.5,126.9c-1.2-0.2-2.3-0.9-3.5-1.4c-0.6-2.2-1.2-4.5-1.8-6.8l-0.4,0l-1.3,4.4c-0.7,1.1-0.4,2.8-2.2,3.1
		l-5.4,1.5l0,0.4l5.7,1.7l0,0c1.6,0.4,1.2,2.1,1.9,3.1c0.4,1.6,0.8,3.1,1.5,4.6l1.9-7l3.5-1.5c1.2-0.1,2.4-0.5,3.5-1.2
		C200.7,127.5,199.7,126.9,198.5,126.9z"/>
	<path class="st2" d="M49.3,214.2c0.4,0,0.8,0.3,0.9,0.7c0,0,0,0.1,0,0.1c0,0.4-0.4,0.8-0.8,0.8h0c-0.4,0-0.8-0.3-0.9-0.7
		c0,0,0-0.1,0-0.1C48.5,214.6,48.8,214.2,49.3,214.2C49.3,214.2,49.3,214.2,49.3,214.2z M49.3,220.7c0.4,0,0.8,0.3,0.9,0.7
		c0,0,0,0.1,0,0.1c0,0.4-0.4,0.8-0.8,0.8h0c-0.4,0-0.8-0.3-0.9-0.7c0,0,0-0.1,0-0.1C48.5,221.1,48.8,220.7,49.3,220.7
		C49.3,220.7,49.3,220.7,49.3,220.7z M51.5,214.2c0.4,0,0.8,0.3,0.9,0.7c0,0,0,0.1,0,0.1c0,0.4-0.4,0.8-0.8,0.8h0
		c-0.4,0-0.8-0.3-0.9-0.7c0,0,0-0.1,0-0.1C50.6,214.6,51,214.2,51.5,214.2C51.4,214.2,51.4,214.2,51.5,214.2L51.5,214.2z
		 M51.5,220.7c0.4,0,0.8,0.3,0.9,0.7c0,0,0,0.1,0,0.1c0,0.4-0.4,0.8-0.8,0.8h0c-0.4,0-0.8-0.3-0.9-0.7c0,0,0-0.1,0-0.1
		C50.6,221.1,51,220.7,51.5,220.7C51.4,220.7,51.4,220.7,51.5,220.7L51.5,220.7z M53.6,212.1c0.4,0,0.8,0.3,0.9,0.7c0,0,0,0.1,0,0.1
		c0,0.4-0.4,0.8-0.8,0.8h0c-0.4,0-0.8-0.3-0.9-0.7c0,0,0-0.1,0-0.1C52.8,212.5,53.1,212.1,53.6,212.1
		C53.6,212.1,53.6,212.1,53.6,212.1z M53.6,220.7c0.4,0,0.8,0.3,0.9,0.7c0,0,0,0.1,0,0.1c0,0.4-0.4,0.8-0.8,0.8h0
		c-0.4,0-0.8-0.3-0.9-0.7c0,0,0-0.1,0-0.1C52.8,221.1,53.1,220.7,53.6,220.7C53.6,220.7,53.6,220.7,53.6,220.7z M55.8,188.3
		c0.4,0,0.8,0.3,0.9,0.7c0,0,0,0.1,0,0.1c0,0.4-0.4,0.8-0.8,0.8h0c-0.4,0-0.8-0.3-0.9-0.7c0,0,0-0.1,0-0.1
		C54.9,188.7,55.3,188.3,55.8,188.3C55.7,188.3,55.7,188.3,55.8,188.3z M55.8,190.5c0.4,0,0.8,0.3,0.9,0.7c0,0,0,0.1,0,0.1
		c0,0.4-0.4,0.8-0.8,0.8h0c-0.4,0-0.8-0.3-0.9-0.7c0,0,0-0.1,0-0.1C54.9,190.9,55.3,190.5,55.8,190.5
		C55.7,190.5,55.7,190.5,55.8,190.5L55.8,190.5z M55.8,192.7c0.4,0,0.8,0.3,0.9,0.7c0,0,0,0.1,0,0.1c0,0.4-0.4,0.8-0.8,0.8h0
		c-0.4,0-0.8-0.3-0.9-0.7c0,0,0-0.1,0-0.1C54.9,193,55.3,192.7,55.8,192.7C55.7,192.7,55.7,192.7,55.8,192.7L55.8,192.7z
		 M55.8,194.8c0.4,0,0.8,0.3,0.9,0.7c0,0,0,0.1,0,0.1c0,0.4-0.4,0.8-0.8,0.8h0c-0.4,0-0.8-0.3-0.9-0.7c0,0,0-0.1,0-0.1
		C54.9,195.2,55.3,194.8,55.8,194.8C55.7,194.8,55.7,194.8,55.8,194.8L55.8,194.8z M55.8,197c0.4,0,0.8,0.3,0.9,0.7c0,0,0,0.1,0,0.1
		c0,0.4-0.4,0.8-0.8,0.8h0c-0.4,0-0.8-0.3-0.9-0.7c0,0,0-0.1,0-0.1C54.9,197.4,55.3,197,55.8,197C55.7,197,55.7,197,55.8,197
		L55.8,197z M55.8,199.2c0.4,0,0.8,0.3,0.9,0.7c0,0,0,0.1,0,0.1c0,0.4-0.4,0.8-0.8,0.8h0c-0.4,0-0.8-0.3-0.9-0.7c0,0,0-0.1,0-0.1
		C54.9,199.6,55.3,199.2,55.8,199.2C55.7,199.1,55.7,199.1,55.8,199.2L55.8,199.2z M55.8,201.3c0.4,0,0.8,0.3,0.9,0.7
		c0,0,0,0.1,0,0.1c0,0.4-0.4,0.8-0.8,0.8h0c-0.4,0-0.8-0.3-0.9-0.7c0,0,0-0.1,0-0.1C54.9,201.7,55.3,201.3,55.8,201.3
		C55.7,201.3,55.7,201.3,55.8,201.3L55.8,201.3z M55.8,205.6c0.4,0,0.8,0.3,0.9,0.7c0,0,0,0.1,0,0.1c0,0.4-0.4,0.8-0.8,0.8h0
		c-0.4,0-0.8-0.3-0.9-0.7c0,0,0-0.1,0-0.1C54.9,206,55.3,205.6,55.8,205.6C55.7,205.6,55.7,205.6,55.8,205.6L55.8,205.6z
		 M55.8,207.8c0.4,0,0.8,0.3,0.9,0.7c0,0,0,0.1,0,0.1c0,0.4-0.4,0.8-0.8,0.8h0c-0.4,0-0.8-0.3-0.9-0.7c0,0,0-0.1,0-0.1
		C54.9,208.2,55.3,207.8,55.8,207.8C55.7,207.7,55.7,207.7,55.8,207.8L55.8,207.8z M55.8,209.9c0.4,0,0.8,0.3,0.9,0.7
		c0,0,0,0.1,0,0.1c0,0.4-0.4,0.8-0.8,0.8h0c-0.4,0-0.8-0.3-0.9-0.7c0,0,0-0.1,0-0.1C54.9,210.3,55.3,209.9,55.8,209.9
		C55.7,209.9,55.7,209.9,55.8,209.9L55.8,209.9z M55.8,220.7c0.4,0,0.8,0.3,0.9,0.7c0,0,0,0.1,0,0.1c0,0.4-0.4,0.8-0.8,0.8h0
		c-0.4,0-0.8-0.3-0.9-0.7c0,0,0-0.1,0-0.1C54.9,221.1,55.3,220.7,55.8,220.7C55.7,220.7,55.7,220.7,55.8,220.7L55.8,220.7z
		 M57.9,188.3c0.4,0,0.8,0.3,0.9,0.7c0,0,0,0.1,0,0.1c0,0.4-0.4,0.8-0.8,0.8h0c-0.4,0-0.8-0.3-0.9-0.7c0,0,0-0.1,0-0.1
		C57.1,188.7,57.5,188.3,57.9,188.3C57.9,188.3,57.9,188.3,57.9,188.3z M57.9,194.8c0.4,0,0.8,0.3,0.9,0.7c0,0,0,0.1,0,0.1
		c0,0.4-0.4,0.8-0.8,0.8h0c-0.4,0-0.8-0.3-0.9-0.7c0,0,0-0.1,0-0.1C57.1,195.2,57.4,194.8,57.9,194.8
		C57.9,194.8,57.9,194.8,57.9,194.8L57.9,194.8z M57.9,201.3c0.4,0,0.8,0.3,0.9,0.7c0,0,0,0.1,0,0.1c0,0.4-0.4,0.8-0.8,0.8h0
		c-0.4,0-0.8-0.3-0.9-0.7c0,0,0-0.1,0-0.1C57.1,201.7,57.4,201.3,57.9,201.3C57.9,201.3,57.9,201.3,57.9,201.3L57.9,201.3z
		 M57.9,207.8c0.4,0,0.8,0.3,0.9,0.7c0,0,0,0.1,0,0.1c0,0.4-0.4,0.8-0.8,0.8h0c-0.4,0-0.8-0.3-0.8-0.7c0,0,0-0.1,0-0.1
		C57.1,208.2,57.5,207.8,57.9,207.8C57.9,207.7,57.9,207.7,57.9,207.8L57.9,207.8z M57.9,214.3c0.4,0,0.8,0.3,0.9,0.7
		c0,0,0,0.1,0,0.1c0,0.4-0.4,0.8-0.8,0.8h0c-0.4,0-0.8-0.3-0.9-0.7c0,0,0-0.1,0-0.1C57.1,214.7,57.4,214.3,57.9,214.3
		C57.9,214.2,57.9,214.2,57.9,214.3L57.9,214.3z M57.9,220.7c0.4,0,0.8,0.3,0.9,0.7c0,0,0,0.1,0,0.1c0,0.4-0.4,0.8-0.8,0.8h0
		c-0.4,0-0.8-0.3-0.9-0.7c0,0,0-0.1,0-0.1C57.1,221.1,57.4,220.7,57.9,220.7C57.9,220.7,57.9,220.7,57.9,220.7L57.9,220.7z
		 M60.1,188.3c0.4,0,0.8,0.3,0.9,0.7c0,0,0,0.1,0,0.1c0,0.4-0.4,0.8-0.8,0.8h0c-0.4,0-0.8-0.3-0.9-0.7c0,0,0-0.1,0-0.1
		C59.3,188.7,59.6,188.3,60.1,188.3L60.1,188.3z M60.1,194.8c0.4,0,0.8,0.3,0.9,0.7c0,0,0,0.1,0,0.1c0,0.4-0.4,0.8-0.8,0.8h0
		c-0.4,0-0.8-0.3-0.9-0.7c0,0,0-0.1,0-0.1C59.3,195.2,59.6,194.8,60.1,194.8C60.1,194.8,60.1,194.8,60.1,194.8L60.1,194.8z
		 M60.1,201.3c0.4,0,0.8,0.3,0.9,0.7c0,0,0,0.1,0,0.1c0,0.4-0.4,0.8-0.8,0.8h0c-0.4,0-0.8-0.3-0.9-0.7c0,0,0-0.1,0-0.1
		C59.3,201.7,59.6,201.3,60.1,201.3C60.1,201.3,60.1,201.3,60.1,201.3L60.1,201.3z M60.1,207.8c0.4,0,0.8,0.3,0.9,0.7
		c0,0,0,0.1,0,0.1c0,0.4-0.4,0.8-0.8,0.8h0c-0.4,0-0.8-0.3-0.9-0.7c0,0,0-0.1,0-0.1C59.3,208.2,59.6,207.8,60.1,207.8
		C60.1,207.7,60.1,207.7,60.1,207.8L60.1,207.8z M60.1,214.3c0.4,0,0.8,0.3,0.9,0.7c0,0,0,0.1,0,0.1c0,0.4-0.4,0.8-0.8,0.8h0
		c-0.4,0-0.8-0.3-0.9-0.7c0,0,0-0.1,0-0.1C59.3,214.7,59.6,214.3,60.1,214.3C60.1,214.2,60.1,214.2,60.1,214.3L60.1,214.3z
		 M60.1,220.7c0.4,0,0.8,0.3,0.9,0.7c0,0,0,0.1,0,0.1c0,0.4-0.4,0.8-0.8,0.8h0c-0.4,0-0.8-0.3-0.9-0.7c0,0,0-0.1,0-0.1
		C59.3,221.1,59.6,220.7,60.1,220.7C60.1,220.7,60.1,220.7,60.1,220.7L60.1,220.7z M62.3,188.3c0.4,0,0.8,0.3,0.9,0.7
		c0,0,0,0.1,0,0.1c0,0.4-0.4,0.8-0.8,0.8h0c-0.4,0-0.8-0.3-0.9-0.7c0,0,0-0.1,0-0.1C61.4,188.7,61.8,188.3,62.3,188.3
		C62.2,188.3,62.2,188.3,62.3,188.3z M62.3,194.8c0.4,0,0.8,0.3,0.9,0.7c0,0,0,0.1,0,0.1c0,0.4-0.4,0.8-0.8,0.8h0
		c-0.4,0-0.8-0.3-0.9-0.7c0,0,0-0.1,0-0.1C61.4,195.2,61.7,194.8,62.3,194.8C62.2,194.8,62.2,194.8,62.3,194.8L62.3,194.8z
		 M62.3,201.3c0.4,0,0.8,0.3,0.9,0.7c0,0,0,0.1,0,0.1c0,0.4-0.4,0.8-0.8,0.8h0c-0.4,0-0.8-0.3-0.9-0.7c0,0,0-0.1,0-0.1
		C61.4,201.7,61.7,201.3,62.3,201.3C62.2,201.3,62.2,201.3,62.3,201.3L62.3,201.3z M62.3,207.8c0.4,0,0.8,0.3,0.9,0.7
		c0,0,0,0.1,0,0.1c0,0.4-0.4,0.8-0.8,0.8h0c-0.4,0-0.8-0.3-0.9-0.7c0,0,0-0.1,0-0.1C61.4,208.2,61.7,207.8,62.3,207.8
		C62.2,207.7,62.2,207.7,62.3,207.8L62.3,207.8z M62.3,214.3c0.4,0,0.8,0.3,0.9,0.7c0,0,0,0.1,0,0.1c0,0.4-0.4,0.8-0.8,0.8h0
		c-0.4,0-0.8-0.3-0.9-0.7c0,0,0-0.1,0-0.1C61.4,214.7,61.7,214.3,62.3,214.3C62.2,214.2,62.2,214.2,62.3,214.3L62.3,214.3z
		 M62.3,220.7c0.4,0,0.8,0.3,0.9,0.7c0,0,0,0.1,0,0.1c0,0.4-0.4,0.8-0.8,0.8h0c-0.4,0-0.8-0.3-0.9-0.7c0,0,0-0.1,0-0.1
		C61.4,221.1,61.7,220.7,62.3,220.7C62.2,220.7,62.2,220.7,62.3,220.7L62.3,220.7z M64.4,188.3c0.4,0,0.8,0.3,0.9,0.7
		c0,0,0,0.1,0,0.1c0,0.4-0.4,0.8-0.8,0.8h0c-0.4,0-0.8-0.3-0.9-0.7c0,0,0-0.1,0-0.1C63.6,188.7,63.9,188.3,64.4,188.3L64.4,188.3z
		 M64.4,194.8c0.4,0,0.8,0.3,0.9,0.7c0,0,0,0.1,0,0.1c0,0.4-0.4,0.8-0.8,0.8h0c-0.4,0-0.8-0.3-0.9-0.7c0,0,0-0.1,0-0.1
		C63.6,195.2,63.9,194.8,64.4,194.8C64.4,194.8,64.4,194.8,64.4,194.8L64.4,194.8z M64.4,201.3c0.4,0,0.8,0.3,0.9,0.7
		c0,0,0,0.1,0,0.1c0,0.4-0.4,0.8-0.8,0.8h0c-0.4,0-0.8-0.3-0.9-0.7c0,0,0-0.1,0-0.1C63.6,201.7,63.9,201.3,64.4,201.3
		C64.4,201.3,64.4,201.3,64.4,201.3L64.4,201.3z M64.4,207.8c0.4,0,0.8,0.3,0.8,0.7c0,0,0,0.1,0,0.1c0,0.4-0.4,0.8-0.8,0.8h0
		c-0.4,0-0.8-0.3-0.9-0.7c0,0,0-0.1,0-0.1C63.5,208.2,63.8,207.8,64.4,207.8C64.4,207.7,64.4,207.7,64.4,207.8L64.4,207.8z
		 M64.4,214.3c0.4,0,0.8,0.3,0.9,0.7c0,0,0,0.1,0,0.1c0,0.4-0.4,0.8-0.8,0.8h0c-0.4,0-0.8-0.3-0.9-0.7c0,0,0-0.1,0-0.1
		C63.6,214.7,63.9,214.3,64.4,214.3C64.4,214.2,64.4,214.2,64.4,214.3L64.4,214.3z M64.4,220.7c0.4,0,0.8,0.3,0.9,0.7
		c0,0,0,0.1,0,0.1c0,0.4-0.4,0.8-0.8,0.8h0c-0.4,0-0.8-0.3-0.9-0.7c0,0,0-0.1,0-0.1C63.6,221.1,63.9,220.7,64.4,220.7
		C64.4,220.7,64.4,220.7,64.4,220.7L64.4,220.7z M66.6,188.3c0.4,0,0.8,0.3,0.9,0.7c0,0,0,0.1,0,0.1c0,0.4-0.4,0.8-0.8,0.8h0
		c-0.4,0-0.8-0.3-0.9-0.7c0,0,0-0.1,0-0.1C65.7,188.7,66.1,188.3,66.6,188.3L66.6,188.3z M66.6,194.8c0.4,0,0.8,0.3,0.9,0.7
		c0,0,0,0.1,0,0.1c0,0.4-0.4,0.8-0.8,0.8h0c-0.4,0-0.8-0.3-0.9-0.7c0,0,0-0.1,0-0.1C65.7,195.2,66,194.8,66.6,194.8
		C66.5,194.8,66.5,194.8,66.6,194.8L66.6,194.8z M66.6,201.3c0.4,0,0.8,0.3,0.9,0.7c0,0,0,0.1,0,0.1c0,0.4-0.4,0.8-0.8,0.8h0
		c-0.4,0-0.8-0.3-0.9-0.7c0,0,0-0.1,0-0.1C65.7,201.7,66,201.3,66.6,201.3C66.5,201.3,66.5,201.3,66.6,201.3L66.6,201.3z
		 M66.6,203.5c0.4,0,0.8,0.3,0.9,0.7c0,0,0,0.1,0,0.1c0,0.4-0.4,0.8-0.8,0.8h0c-0.4,0-0.8-0.3-0.9-0.7c0,0,0-0.1,0-0.1
		C65.7,203.9,66,203.5,66.6,203.5C66.5,203.4,66.5,203.4,66.6,203.5L66.6,203.5z M66.6,205.6c0.4,0,0.8,0.3,0.9,0.7c0,0,0,0.1,0,0.1
		c0,0.4-0.4,0.8-0.8,0.8h0c-0.4,0-0.8-0.3-0.9-0.7c0,0,0-0.1,0-0.1C65.7,206,66,205.6,66.6,205.6C66.5,205.6,66.5,205.6,66.6,205.6
		L66.6,205.6z M66.6,207.8c0.4,0,0.8,0.3,0.9,0.7c0,0,0,0.1,0,0.1c0,0.4-0.4,0.8-0.8,0.8h0c-0.4,0-0.8-0.3-0.9-0.7c0,0,0-0.1,0-0.1
		C65.7,208.2,66,207.8,66.6,207.8C66.5,207.7,66.5,207.7,66.6,207.8L66.6,207.8z M66.6,209.9c0.4,0,0.8,0.3,0.9,0.7c0,0,0,0.1,0,0.1
		c0,0.4-0.4,0.8-0.8,0.8h0c-0.4,0-0.8-0.3-0.9-0.7c0,0,0-0.1,0-0.1C65.7,210.3,66,209.9,66.6,209.9
		C66.5,209.9,66.5,209.9,66.6,209.9L66.6,209.9z M66.6,212.1c0.4,0,0.8,0.3,0.9,0.7c0,0,0,0.1,0,0.1c0,0.4-0.4,0.8-0.8,0.8h0
		c-0.4,0-0.8-0.3-0.9-0.7c0,0,0-0.1,0-0.1C65.7,212.5,66,212.1,66.6,212.1C66.5,212.1,66.5,212.1,66.6,212.1L66.6,212.1z
		 M66.6,214.3c0.4,0,0.8,0.3,0.9,0.7c0,0,0,0.1,0,0.1c0,0.4-0.4,0.8-0.8,0.8h0c-0.4,0-0.8-0.3-0.9-0.7c0,0,0-0.1,0-0.1
		C65.7,214.7,66,214.3,66.6,214.3C66.5,214.2,66.5,214.2,66.6,214.3L66.6,214.3z M66.6,216.4c0.4,0,0.8,0.3,0.9,0.7c0,0,0,0.1,0,0.1
		c0,0.4-0.4,0.8-0.8,0.8h0c-0.4,0-0.8-0.3-0.9-0.7c0,0,0-0.1,0-0.1C65.7,216.8,66,216.4,66.6,216.4
		C66.5,216.4,66.5,216.4,66.6,216.4L66.6,216.4z M66.6,218.6c0.4,0,0.8,0.3,0.9,0.7c0,0,0,0.1,0,0.1c0,0.4-0.4,0.8-0.8,0.8h0
		c-0.4,0-0.8-0.3-0.9-0.7c0,0,0-0.1,0-0.1C65.7,219,66,218.6,66.6,218.6C66.5,218.6,66.5,218.6,66.6,218.6L66.6,218.6z M66.6,220.7
		c0.4,0,0.8,0.3,0.9,0.7c0,0,0,0.1,0,0.1c0,0.4-0.4,0.8-0.8,0.8h0c-0.4,0-0.8-0.3-0.9-0.7c0,0,0-0.1,0-0.1
		C65.7,221.1,66,220.7,66.6,220.7C66.5,220.7,66.5,220.7,66.6,220.7L66.6,220.7z M68.7,188.3c0.4,0,0.8,0.3,0.9,0.7c0,0,0,0.1,0,0.1
		c0,0.4-0.4,0.8-0.8,0.8h0c-0.4,0-0.8-0.3-0.9-0.7c0,0,0-0.1,0-0.1C67.9,188.7,68.2,188.3,68.7,188.3L68.7,188.3z M68.7,194.8
		c0.4,0,0.8,0.3,0.9,0.7c0,0,0,0.1,0,0.1c0,0.4-0.4,0.8-0.8,0.8h0c-0.4,0-0.8-0.3-0.9-0.7c0,0,0-0.1,0-0.1
		C67.9,195.2,68.2,194.8,68.7,194.8L68.7,194.8L68.7,194.8z M68.7,201.3c0.4,0,0.8,0.3,0.9,0.7c0,0,0,0.1,0,0.1
		c0,0.4-0.4,0.8-0.8,0.8h0c-0.4,0-0.8-0.3-0.9-0.7c0,0,0-0.1,0-0.1C67.9,201.7,68.2,201.3,68.7,201.3
		C68.7,201.3,68.7,201.3,68.7,201.3L68.7,201.3z M68.7,207.8c0.4,0,0.8,0.3,0.9,0.7c0,0,0,0.1,0,0.1c0,0.4-0.4,0.8-0.8,0.8h0
		c-0.4,0-0.8-0.3-0.9-0.7c0,0,0-0.1,0-0.1C67.9,208.2,68.2,207.8,68.7,207.8C68.7,207.7,68.7,207.7,68.7,207.8L68.7,207.8z
		 M68.7,214.3c0.4,0,0.8,0.3,0.9,0.7c0,0,0,0.1,0,0.1c0,0.4-0.4,0.8-0.8,0.8h0c-0.4,0-0.8-0.3-0.9-0.7c0,0,0-0.1,0-0.1
		C67.9,214.7,68.2,214.3,68.7,214.3C68.7,214.2,68.7,214.2,68.7,214.3L68.7,214.3z M68.7,220.7c0.4,0,0.8,0.3,0.9,0.7
		c0,0,0,0.1,0,0.1c0,0.4-0.4,0.8-0.8,0.8h0c-0.4,0-0.8-0.3-0.9-0.7c0,0,0-0.1,0-0.1C67.9,221.1,68.2,220.7,68.7,220.7L68.7,220.7
		L68.7,220.7z M70.9,188.3c0.4,0,0.8,0.3,0.9,0.7c0,0,0,0.1,0,0.1c0,0.4-0.4,0.8-0.8,0.8h0c-0.4,0-0.8-0.3-0.9-0.7c0,0,0-0.1,0-0.1
		C70,188.7,70.4,188.3,70.9,188.3L70.9,188.3z M70.9,194.8c0.4,0,0.8,0.3,0.9,0.7c0,0,0,0.1,0,0.1c0,0.4-0.4,0.8-0.8,0.8h0
		c-0.4,0-0.8-0.3-0.9-0.7c0,0,0-0.1,0-0.1C70,195.2,70.4,194.8,70.9,194.8L70.9,194.8L70.9,194.8z M70.9,201.3
		c0.4,0,0.8,0.3,0.9,0.7c0,0,0,0.1,0,0.1c0,0.4-0.4,0.8-0.8,0.8h0c-0.4,0-0.8-0.3-0.9-0.7c0,0,0-0.1,0-0.1
		C70,201.7,70.4,201.3,70.9,201.3C70.8,201.3,70.9,201.3,70.9,201.3L70.9,201.3z M70.9,207.8c0.4,0,0.8,0.3,0.9,0.7c0,0,0,0.1,0,0.1
		c0,0.4-0.4,0.8-0.8,0.8h0c-0.4,0-0.8-0.3-0.9-0.7c0,0,0-0.1,0-0.1C70,208.2,70.4,207.8,70.9,207.8
		C70.8,207.7,70.9,207.7,70.9,207.8L70.9,207.8z M70.9,214.3c0.4,0,0.8,0.3,0.9,0.7c0,0,0,0.1,0,0.1c0,0.4-0.4,0.8-0.8,0.8h0
		c-0.4,0-0.8-0.3-0.9-0.7c0,0,0-0.1,0-0.1C70,214.7,70.4,214.3,70.9,214.3C70.8,214.2,70.9,214.2,70.9,214.3L70.9,214.3z
		 M70.9,220.7c0.4,0,0.8,0.3,0.9,0.7c0,0,0,0.1,0,0.1c0,0.4-0.4,0.8-0.8,0.8h0c-0.4,0-0.8-0.3-0.9-0.7c0,0,0-0.1,0-0.1
		C70,221.1,70.4,220.7,70.9,220.7L70.9,220.7L70.9,220.7z M73,188.3c0.4,0,0.8,0.3,0.9,0.7c0,0,0,0.1,0,0.1c0,0.4-0.4,0.8-0.8,0.8h0
		c-0.4,0-0.8-0.3-0.9-0.7c0,0,0-0.1,0-0.1C72.2,188.7,72.6,188.3,73,188.3L73,188.3z M73,194.8c0.4,0,0.8,0.3,0.9,0.7
		c0,0,0,0.1,0,0.1c0,0.4-0.4,0.8-0.8,0.8h0c-0.4,0-0.8-0.3-0.9-0.7c0,0,0-0.1,0-0.1C72.2,195.2,72.5,194.8,73,194.8
		C73,194.8,73,194.8,73,194.8L73,194.8z M73,201.3c0.4,0,0.8,0.3,0.9,0.7c0,0,0,0.1,0,0.1c0,0.4-0.4,0.8-0.8,0.8h0
		c-0.4,0-0.8-0.3-0.9-0.7c0,0,0-0.1,0-0.1C72.2,201.7,72.5,201.3,73,201.3C73,201.3,73,201.3,73,201.3L73,201.3z M73,207.8
		c0.4,0,0.8,0.3,0.9,0.7c0,0,0,0.1,0,0.1c0,0.4-0.4,0.8-0.8,0.8h0c-0.4,0-0.8-0.3-0.9-0.7c0,0,0-0.1,0-0.1
		C72.2,208.2,72.5,207.8,73,207.8C73,207.7,73,207.7,73,207.8L73,207.8z M73,214.3c0.4,0,0.8,0.3,0.9,0.7c0,0,0,0.1,0,0.1
		c0,0.4-0.4,0.8-0.8,0.8h0c-0.4,0-0.8-0.3-0.9-0.7c0,0,0-0.1,0-0.1C72.2,214.7,72.5,214.3,73,214.3C73,214.2,73,214.2,73,214.3
		L73,214.3z M73,220.7c0.4,0,0.8,0.3,0.9,0.7c0,0,0,0.1,0,0.1c0,0.4-0.4,0.8-0.8,0.8h0c-0.4,0-0.8-0.3-0.9-0.7c0,0,0-0.1,0-0.1
		C72.2,221.1,72.5,220.7,73,220.7C73,220.7,73,220.7,73,220.7L73,220.7z M75.2,188.3c0.4,0,0.8,0.3,0.9,0.7c0,0,0,0.1,0,0.1
		c0,0.4-0.4,0.8-0.8,0.8h0c-0.4,0-0.8-0.3-0.9-0.7c0,0,0-0.1,0-0.1C74.4,188.7,74.7,188.3,75.2,188.3L75.2,188.3z M75.2,194.8
		c0.4,0,0.8,0.3,0.9,0.7c0,0,0,0.1,0,0.1c0,0.4-0.4,0.8-0.8,0.8h0c-0.4,0-0.8-0.3-0.9-0.7c0,0,0-0.1,0-0.1
		C74.4,195.2,74.7,194.8,75.2,194.8L75.2,194.8L75.2,194.8z M75.2,201.3c0.4,0,0.8,0.3,0.9,0.7c0,0,0,0.1,0,0.1
		c0,0.4-0.4,0.8-0.8,0.8h0c-0.4,0-0.8-0.3-0.9-0.7c0,0,0-0.1,0-0.1C74.4,201.7,74.7,201.3,75.2,201.3
		C75.1,201.3,75.2,201.3,75.2,201.3L75.2,201.3z M75.2,207.8c0.4,0,0.8,0.3,0.9,0.7c0,0,0,0.1,0,0.1c0,0.4-0.4,0.8-0.8,0.8h0
		c-0.4,0-0.8-0.3-0.9-0.7c0,0,0-0.1,0-0.1C74.4,208.2,74.7,207.8,75.2,207.8C75.1,207.7,75.2,207.7,75.2,207.8L75.2,207.8z
		 M75.2,214.3c0.4,0,0.8,0.3,0.9,0.7c0,0,0,0.1,0,0.1c0,0.4-0.4,0.8-0.8,0.8h0c-0.4,0-0.8-0.3-0.9-0.7c0,0,0-0.1,0-0.1
		C74.4,214.7,74.7,214.3,75.2,214.3C75.1,214.2,75.2,214.2,75.2,214.3L75.2,214.3z M75.2,220.7c0.4,0,0.8,0.3,0.9,0.7
		c0,0,0,0.1,0,0.1c0,0.4-0.4,0.8-0.8,0.8h0c-0.4,0-0.8-0.3-0.9-0.7c0,0,0-0.1,0-0.1C74.4,221.1,74.7,220.7,75.2,220.7L75.2,220.7
		L75.2,220.7z M77.4,188.3c0.4,0,0.8,0.3,0.9,0.7c0,0,0,0.1,0,0.1c0,0.4-0.4,0.8-0.8,0.8h0c-0.4,0-0.8-0.3-0.9-0.7c0,0,0-0.1,0-0.1
		C76.5,188.7,76.9,188.3,77.4,188.3C77.4,188.3,77.4,188.3,77.4,188.3z M77.4,190.5c0.4,0,0.8,0.3,0.9,0.7c0,0,0,0.1,0,0.1
		c0,0.4-0.4,0.8-0.8,0.8h0c-0.4,0-0.8-0.3-0.9-0.7c0,0,0-0.1,0-0.1C76.5,190.9,76.8,190.5,77.4,190.5
		C77.3,190.5,77.4,190.5,77.4,190.5L77.4,190.5z M77.4,192.7c0.4,0,0.8,0.3,0.9,0.7c0,0,0,0.1,0,0.1c0,0.4-0.4,0.8-0.8,0.8h0
		c-0.4,0-0.8-0.3-0.9-0.7c0,0,0-0.1,0-0.1C76.5,193,76.8,192.7,77.4,192.7C77.3,192.7,77.4,192.7,77.4,192.7L77.4,192.7z
		 M77.4,194.8c0.4,0,0.8,0.3,0.9,0.7c0,0,0,0.1,0,0.1c0,0.4-0.4,0.8-0.8,0.8h0c-0.4,0-0.8-0.3-0.9-0.7c0,0,0-0.1,0-0.1
		C76.5,195.2,76.8,194.8,77.4,194.8L77.4,194.8L77.4,194.8z M77.4,197c0.4,0,0.8,0.3,0.9,0.7c0,0,0,0.1,0,0.1c0,0.4-0.4,0.8-0.8,0.8
		h0c-0.4,0-0.8-0.3-0.9-0.7c0,0,0-0.1,0-0.1C76.5,197.4,76.8,197,77.4,197C77.3,197,77.4,197,77.4,197L77.4,197z M77.4,199.2
		c0.4,0,0.8,0.3,0.9,0.7c0,0,0,0.1,0,0.1c0,0.4-0.4,0.8-0.8,0.8h0c-0.4,0-0.8-0.3-0.9-0.7c0,0,0-0.1,0-0.1
		C76.5,199.6,76.8,199.2,77.4,199.2C77.4,199.1,77.4,199.1,77.4,199.2L77.4,199.2z M77.4,201.3c0.4,0,0.8,0.3,0.9,0.7
		c0,0,0,0.1,0,0.1c0,0.4-0.4,0.8-0.8,0.8h0c-0.4,0-0.8-0.3-0.9-0.7c0,0,0-0.1,0-0.1C76.5,201.7,76.8,201.3,77.4,201.3
		C77.3,201.3,77.4,201.3,77.4,201.3L77.4,201.3z M77.4,207.8c0.4,0,0.8,0.3,0.9,0.7c0,0,0,0.1,0,0.1c0,0.4-0.4,0.8-0.8,0.8h0
		c-0.4,0-0.8-0.3-0.9-0.7c0,0,0-0.1,0-0.1C76.5,208.2,76.8,207.8,77.4,207.8C77.3,207.7,77.4,207.7,77.4,207.8L77.4,207.8z
		 M77.4,214.3c0.4,0,0.8,0.3,0.9,0.7c0,0,0,0.1,0,0.1c0,0.4-0.4,0.8-0.8,0.8h0c-0.4,0-0.8-0.3-0.9-0.7c0,0,0-0.1,0-0.1
		C76.5,214.7,76.8,214.3,77.4,214.3C77.3,214.2,77.4,214.2,77.4,214.3L77.4,214.3z M77.4,220.7c0.4,0,0.8,0.3,0.9,0.7
		c0,0,0,0.1,0,0.1c0,0.4-0.4,0.8-0.8,0.8h0c-0.4,0-0.8-0.3-0.9-0.7c0,0,0-0.1,0-0.1C76.5,221.1,76.8,220.7,77.4,220.7L77.4,220.7
		L77.4,220.7z M79.5,207.8c0.4,0,0.8,0.3,0.9,0.7c0,0,0,0.1,0,0.1c0,0.4-0.4,0.8-0.8,0.8h0c-0.4,0-0.8-0.3-0.9-0.7c0,0,0-0.1,0-0.1
		C78.7,208.2,79,207.8,79.5,207.8C79.5,207.7,79.5,207.7,79.5,207.8L79.5,207.8z M79.5,220.7c0.4,0,0.8,0.3,0.9,0.7c0,0,0,0.1,0,0.1
		c0,0.4-0.4,0.8-0.8,0.8h0c-0.4,0-0.8-0.3-0.9-0.7c0,0,0-0.1,0-0.1C78.7,221.1,79,220.7,79.5,220.7L79.5,220.7L79.5,220.7z
		 M81.7,220.7c0.4,0,0.8,0.3,0.9,0.7c0,0,0,0.1,0,0.1c0,0.4-0.4,0.8-0.8,0.8h0c-0.4,0-0.8-0.3-0.9-0.7c0,0,0-0.1,0-0.1
		C80.8,221.1,81.1,220.7,81.7,220.7L81.7,220.7L81.7,220.7z M83.8,220.7c0.4,0,0.8,0.3,0.9,0.7c0,0,0,0.1,0,0.1
		c0,0.4-0.4,0.8-0.8,0.8h0c-0.4,0-0.8-0.3-0.9-0.7c0,0,0-0.1,0-0.1C83,221.1,83.3,220.7,83.8,220.7
		C83.8,220.7,83.8,220.7,83.8,220.7L83.8,220.7z"/>
	<path class="st2" d="M90.8,190.5c0.4,0,0.8,0.3,0.9,0.7c0,0,0,0.1,0,0.1c0,0.4-0.4,0.8-0.8,0.8h0c-0.4,0-0.8-0.3-0.9-0.7
		c0,0,0-0.1,0-0.1C90,190.9,90.3,190.5,90.8,190.5C90.8,190.5,90.8,190.5,90.8,190.5z M90.8,214.2c0.4,0,0.8,0.3,0.9,0.7
		c0,0,0,0.1,0,0.1c0,0.4-0.4,0.8-0.8,0.8h0c-0.4,0-0.8-0.3-0.9-0.7c0,0,0-0.1,0-0.1C90,214.6,90.3,214.2,90.8,214.2
		C90.8,214.2,90.8,214.2,90.8,214.2z M93,190.5c0.4,0,0.8,0.3,0.9,0.7c0,0,0,0.1,0,0.1c0,0.4-0.4,0.8-0.8,0.8h0
		c-0.4,0-0.8-0.3-0.9-0.7c0,0,0-0.1,0-0.1C92.1,190.9,92.5,190.5,93,190.5C92.9,190.5,92.9,190.5,93,190.5z M93,201.3
		c0.4,0,0.8,0.3,0.9,0.7c0,0,0,0.1,0,0.1c0,0.4-0.4,0.8-0.8,0.8h0c-0.4,0-0.8-0.3-0.9-0.7c0,0,0-0.1,0-0.1
		C92.1,201.7,92.5,201.3,93,201.3C92.9,201.3,92.9,201.3,93,201.3L93,201.3z M93,214.2c0.4,0,0.8,0.3,0.9,0.7c0,0,0,0.1,0,0.1
		c0,0.4-0.4,0.8-0.8,0.8h0c-0.4,0-0.8-0.3-0.9-0.7c0,0,0-0.1,0-0.1C92.1,214.6,92.5,214.3,93,214.2C92.9,214.2,92.9,214.2,93,214.2
		L93,214.2z M95.1,190.5c0.4,0,0.8,0.3,0.9,0.7c0,0,0,0.1,0,0.1c0,0.4-0.4,0.8-0.8,0.8h0c-0.4,0-0.8-0.3-0.9-0.7c0,0,0-0.1,0-0.1
		C94.3,190.9,94.6,190.5,95.1,190.5C95.1,190.5,95.1,190.5,95.1,190.5L95.1,190.5z M95.1,201.3c0.4,0,0.8,0.3,0.9,0.7
		c0,0,0,0.1,0,0.1c0,0.4-0.4,0.8-0.8,0.8h0c-0.4,0-0.8-0.3-0.9-0.7c0,0,0-0.1,0-0.1C94.3,201.7,94.6,201.3,95.1,201.3
		C95.1,201.3,95.1,201.3,95.1,201.3L95.1,201.3z M95.1,214.2c0.4,0,0.8,0.3,0.9,0.7c0,0,0,0.1,0,0.1c0,0.4-0.4,0.8-0.8,0.8h0
		c-0.4,0-0.8-0.3-0.9-0.7c0,0,0-0.1,0-0.1C94.3,214.6,94.6,214.3,95.1,214.2C95.1,214.2,95.1,214.2,95.1,214.2L95.1,214.2z
		 M97.3,190.5c0.4,0,0.8,0.3,0.9,0.7c0,0,0,0.1,0,0.1c0,0.4-0.4,0.8-0.8,0.8h0c-0.4,0-0.8-0.3-0.9-0.7c0,0,0-0.1,0-0.1
		C96.5,190.9,96.8,190.5,97.3,190.5C97.2,190.5,97.2,190.5,97.3,190.5L97.3,190.5z M97.3,192.7c0.4,0,0.8,0.3,0.9,0.7
		c0,0,0,0.1,0,0.1c0,0.4-0.4,0.8-0.8,0.8h0c-0.4,0-0.8-0.3-0.9-0.7c0,0,0-0.1,0-0.1C96.5,193,96.8,192.7,97.3,192.7
		C97.2,192.7,97.2,192.7,97.3,192.7L97.3,192.7z M97.3,194.8c0.4,0,0.8,0.3,0.9,0.7c0,0,0,0.1,0,0.1c0,0.4-0.4,0.8-0.8,0.8h0
		c-0.4,0-0.8-0.3-0.9-0.7c0,0,0-0.1,0-0.1C96.5,195.2,96.8,194.8,97.3,194.8C97.2,194.8,97.2,194.8,97.3,194.8L97.3,194.8z
		 M97.3,197c0.4,0,0.8,0.3,0.9,0.7c0,0,0,0.1,0,0.1c0,0.4-0.4,0.8-0.8,0.8h0c-0.4,0-0.8-0.3-0.9-0.7c0,0,0-0.1,0-0.1
		C96.5,197.4,96.8,197,97.3,197C97.2,197,97.2,197,97.3,197L97.3,197z M97.3,199.1c0.4,0,0.8,0.3,0.9,0.7c0,0,0,0.1,0,0.1
		c0,0.4-0.4,0.8-0.8,0.8h0c-0.4,0-0.8-0.3-0.9-0.7c0,0,0-0.1,0-0.1C96.5,199.5,96.8,199.1,97.3,199.1
		C97.2,199.1,97.2,199.1,97.3,199.1L97.3,199.1z M97.3,201.3c0.4,0,0.8,0.3,0.9,0.7c0,0,0,0.1,0,0.1c0,0.4-0.4,0.8-0.8,0.8h0
		c-0.4,0-0.8-0.3-0.9-0.7c0,0,0-0.1,0-0.1C96.5,201.7,96.8,201.3,97.3,201.3C97.2,201.3,97.2,201.3,97.3,201.3L97.3,201.3z
		 M97.3,203.4c0.4,0,0.8,0.3,0.9,0.7c0,0,0,0.1,0,0.1c0,0.4-0.4,0.8-0.8,0.8h0c-0.4,0-0.8-0.3-0.9-0.7c0,0,0-0.1,0-0.1
		C96.5,203.8,96.8,203.4,97.3,203.4C97.2,203.4,97.2,203.4,97.3,203.4L97.3,203.4z M97.3,205.6c0.4,0,0.8,0.3,0.9,0.7
		c0,0,0,0.1,0,0.1c0,0.4-0.4,0.8-0.8,0.8h0c-0.4,0-0.8-0.3-0.9-0.7c0,0,0-0.1,0-0.1C96.5,206,96.8,205.6,97.3,205.6
		C97.2,205.6,97.2,205.6,97.3,205.6L97.3,205.6z M97.3,207.7c0.4,0,0.8,0.3,0.9,0.7c0,0,0,0.1,0,0.1c0,0.4-0.4,0.8-0.8,0.8h0
		c-0.4,0-0.8-0.3-0.9-0.7c0,0,0-0.1,0-0.1C96.5,208.1,96.8,207.7,97.3,207.7C97.2,207.7,97.2,207.7,97.3,207.7L97.3,207.7z
		 M97.3,209.9c0.4,0,0.8,0.3,0.9,0.7c0,0,0,0.1,0,0.1c0,0.4-0.4,0.8-0.8,0.8h0c-0.4,0-0.8-0.3-0.9-0.7c0,0,0-0.1,0-0.1
		C96.5,210.3,96.8,209.9,97.3,209.9C97.2,209.9,97.2,209.9,97.3,209.9L97.3,209.9z M97.3,212.1c0.4,0,0.8,0.3,0.9,0.7
		c0,0,0,0.1,0,0.1c0,0.4-0.4,0.8-0.8,0.8h0c-0.4,0-0.8-0.3-0.9-0.7c0,0,0-0.1,0-0.1C96.5,212.5,96.8,212.1,97.3,212.1
		C97.2,212.1,97.2,212.1,97.3,212.1L97.3,212.1z M99.4,190.5c0.4,0,0.8,0.3,0.9,0.7c0,0,0,0.1,0,0.1c0,0.4-0.4,0.8-0.8,0.8h0
		c-0.4,0-0.8-0.3-0.9-0.7c0,0,0-0.1,0-0.1C98.6,190.9,99,190.5,99.4,190.5C99.4,190.5,99.4,190.5,99.4,190.5L99.4,190.5z
		 M99.4,201.3c0.4,0,0.8,0.3,0.9,0.7c0,0,0,0.1,0,0.1c0,0.4-0.4,0.8-0.8,0.8h0c-0.4,0-0.8-0.3-0.9-0.7c0,0,0-0.1,0-0.1
		C98.6,201.7,99,201.3,99.4,201.3C99.4,201.3,99.4,201.3,99.4,201.3L99.4,201.3z M99.4,212.1c0.4,0,0.8,0.3,0.9,0.7c0,0,0,0.1,0,0.1
		c0,0.4-0.4,0.8-0.8,0.8h0c-0.4,0-0.8-0.3-0.9-0.7c0,0,0-0.1,0-0.1C98.6,212.4,99,212.1,99.4,212.1
		C99.4,212.1,99.4,212.1,99.4,212.1L99.4,212.1z M101.6,190.5c0.4,0,0.8,0.3,0.9,0.7c0,0,0,0.1,0,0.1c0,0.4-0.4,0.8-0.8,0.8h0
		c-0.4,0-0.8-0.3-0.9-0.7c0,0,0-0.1,0-0.1C100.8,190.8,101.1,190.5,101.6,190.5C101.6,190.5,101.6,190.5,101.6,190.5L101.6,190.5z
		 M101.6,201.2c0.4,0,0.8,0.3,0.9,0.7c0,0,0,0.1,0,0.1c0,0.4-0.4,0.8-0.8,0.8h0c-0.4,0-0.8-0.3-0.9-0.7c0,0,0-0.1,0-0.1
		C100.8,201.6,101.1,201.3,101.6,201.2C101.6,201.3,101.6,201.3,101.6,201.2L101.6,201.2z M101.6,212c0.4,0,0.8,0.3,0.9,0.7
		c0,0,0,0.1,0,0.1c0,0.4-0.4,0.8-0.8,0.8h0c-0.4,0-0.8-0.3-0.9-0.7c0,0,0-0.1,0-0.1C100.8,212.4,101.2,212.1,101.6,212L101.6,212
		L101.6,212z M103.8,190.5c0.4,0,0.8,0.3,0.9,0.7c0,0,0,0.1,0,0.1c0,0.4-0.4,0.8-0.8,0.8h0c-0.4,0-0.8-0.3-0.9-0.7c0,0,0-0.1,0-0.1
		C102.9,190.8,103.3,190.5,103.8,190.5L103.8,190.5L103.8,190.5z M103.8,194.8c0.4,0,0.8,0.3,0.9,0.7c0,0,0,0.1,0,0.1
		c0,0.4-0.4,0.8-0.8,0.8h0c-0.4,0-0.8-0.3-0.9-0.7c0,0,0-0.1,0-0.1C102.9,195.2,103.3,194.8,103.8,194.8L103.8,194.8L103.8,194.8z
		 M103.8,216.3c0.4,0,0.8,0.3,0.9,0.7c0,0,0,0.1,0,0.1c0,0.4-0.4,0.8-0.8,0.8h0c-0.4,0-0.8-0.3-0.9-0.7c0,0,0-0.1,0-0.1
		C102.9,216.7,103.3,216.4,103.8,216.3L103.8,216.3L103.8,216.3z M105.9,194.8c0.4,0,0.8,0.3,0.9,0.7c0,0,0,0.1,0,0.1
		c0,0.4-0.4,0.8-0.8,0.8h0c-0.4,0-0.8-0.3-0.9-0.7c0,0,0-0.1,0-0.1C105.1,195.2,105.5,194.8,105.9,194.8L105.9,194.8L105.9,194.8z
		 M105.9,199.1c0.4,0,0.8,0.3,0.9,0.7c0,0,0,0.1,0,0.1c0,0.4-0.4,0.8-0.8,0.8h0c-0.4,0-0.8-0.3-0.9-0.7c0,0,0-0.1,0-0.1
		C105.1,199.5,105.5,199.1,105.9,199.1L105.9,199.1L105.9,199.1z M105.9,216.3c0.4,0,0.8,0.3,0.9,0.7c0,0,0,0.1,0,0.1
		c0,0.4-0.4,0.8-0.8,0.8h0c-0.4,0-0.8-0.3-0.9-0.7c0,0,0-0.1,0-0.1C105.1,216.7,105.5,216.4,105.9,216.3L105.9,216.3L105.9,216.3z
		 M108.1,194.8c0.4,0,0.8,0.3,0.9,0.7c0,0,0,0.1,0,0.1c0,0.4-0.4,0.8-0.8,0.8h0c-0.4,0-0.8-0.3-0.9-0.7c0,0,0-0.1,0-0.1
		C107.2,195.2,107.6,194.8,108.1,194.8L108.1,194.8L108.1,194.8z M108.1,201.2c0.4,0,0.8,0.3,0.9,0.7c0,0,0,0.1,0,0.1
		c0,0.4-0.4,0.8-0.8,0.8h0c-0.4,0-0.8-0.3-0.9-0.7c0,0,0-0.1,0-0.1C107.2,201.6,107.6,201.3,108.1,201.2L108.1,201.2L108.1,201.2z
		 M108.1,214.2c0.4,0,0.8,0.3,0.9,0.7c0,0,0,0.1,0,0.1c0,0.4-0.4,0.8-0.8,0.8h0c-0.4,0-0.8-0.3-0.9-0.7c0,0,0-0.1,0-0.1
		C107.2,214.6,107.6,214.2,108.1,214.2L108.1,214.2L108.1,214.2z M110.2,194.8c0.4,0,0.8,0.3,0.9,0.7c0,0,0,0.1,0,0.1
		c0,0.4-0.4,0.8-0.8,0.8h0c-0.4,0-0.8-0.3-0.9-0.7c0,0,0-0.1,0-0.1C109.4,195.2,109.8,194.8,110.2,194.8L110.2,194.8z M110.2,203.4
		c0.4,0,0.8,0.3,0.9,0.7c0,0,0,0.1,0,0.1c0,0.4-0.4,0.8-0.8,0.8h0c-0.4,0-0.8-0.3-0.9-0.7c0,0,0-0.1,0-0.1
		C109.4,203.8,109.8,203.4,110.2,203.4L110.2,203.4z M110.2,205.5c0.4,0,0.8,0.3,0.9,0.7c0,0,0,0.1,0,0.1c0,0.4-0.4,0.8-0.8,0.8h0
		c-0.4,0-0.8-0.3-0.9-0.7c0,0,0-0.1,0-0.1C109.4,205.9,109.8,205.6,110.2,205.5L110.2,205.5z M110.2,212c0.4,0,0.8,0.3,0.9,0.7
		c0,0,0,0.1,0,0.1c0,0.4-0.4,0.8-0.8,0.8h0c-0.4,0-0.8-0.3-0.9-0.7c0,0,0-0.1,0-0.1C109.4,212.4,109.8,212.1,110.2,212L110.2,212
		L110.2,212z M110.2,220.7c0.4,0,0.8,0.3,0.9,0.7c0,0,0,0.1,0,0.1c0,0.4-0.4,0.8-0.8,0.8h0c-0.4,0-0.8-0.3-0.9-0.7c0,0,0-0.1,0-0.1
		C109.4,221.1,109.8,220.7,110.2,220.7L110.2,220.7z M112.4,194.8c0.4,0,0.8,0.3,0.9,0.7c0,0,0,0.1,0,0.1c0,0.4-0.4,0.8-0.8,0.8h0
		c-0.4,0-0.8-0.3-0.9-0.7c0,0,0-0.1,0-0.1C111.5,195.2,111.9,194.8,112.4,194.8L112.4,194.8L112.4,194.8z M112.4,220.7
		c0.4,0,0.8,0.3,0.9,0.7c0,0,0,0.1,0,0.1c0,0.4-0.4,0.8-0.8,0.8h0c-0.4,0-0.8-0.3-0.9-0.7c0,0,0-0.1,0-0.1
		C111.5,221.1,111.9,220.7,112.4,220.7L112.4,220.7L112.4,220.7z M114.5,186.1c0.4,0,0.8,0.3,0.9,0.7c0,0,0,0.1,0,0.1
		c0,0.4-0.4,0.8-0.8,0.8h0c-0.4,0-0.8-0.3-0.9-0.7c0,0,0-0.1,0-0.1C113.7,186.5,114.1,186.2,114.5,186.1L114.5,186.1L114.5,186.1z
		 M114.5,188.3c0.4,0,0.8,0.3,0.9,0.7c0,0,0,0.1,0,0.1c0,0.4-0.4,0.8-0.8,0.8h0c-0.4,0-0.8-0.3-0.9-0.7c0,0,0-0.1,0-0.1
		C113.7,188.7,114.1,188.3,114.5,188.3L114.5,188.3z M114.5,190.5c0.4,0,0.8,0.3,0.9,0.7c0,0,0,0.1,0,0.1c0,0.4-0.4,0.8-0.8,0.8h0
		c-0.4,0-0.8-0.3-0.9-0.7c0,0,0-0.1,0-0.1C113.7,190.8,114.1,190.5,114.5,190.5L114.5,190.5L114.5,190.5z M114.5,192.6
		c0.4,0,0.8,0.3,0.9,0.7c0,0,0,0.1,0,0.1c0,0.4-0.4,0.8-0.8,0.8h0c-0.4,0-0.8-0.3-0.9-0.7c0,0,0-0.1,0-0.1
		C113.7,193,114.1,192.7,114.5,192.6L114.5,192.6L114.5,192.6z M114.5,194.8c0.4,0,0.8,0.3,0.9,0.7c0,0,0,0.1,0,0.1
		c0,0.4-0.4,0.8-0.8,0.8h0c-0.4,0-0.8-0.3-0.9-0.7c0,0,0-0.1,0-0.1C113.7,195.2,114.1,194.8,114.5,194.8L114.5,194.8z M114.5,196.9
		c0.4,0,0.8,0.3,0.9,0.7c0,0,0,0.1,0,0.1c0,0.4-0.4,0.8-0.8,0.8h0c-0.4,0-0.8-0.3-0.9-0.7c0,0,0-0.1,0-0.1
		C113.7,197.3,114.1,197,114.5,196.9L114.5,196.9L114.5,196.9z M114.5,199.1c0.4,0,0.8,0.3,0.9,0.7c0,0,0,0.1,0,0.1
		c0,0.4-0.4,0.8-0.8,0.8h0c-0.4,0-0.8-0.3-0.9-0.7c0,0,0-0.1,0-0.1C113.7,199.5,114.1,199.1,114.5,199.1L114.5,199.1z M114.5,201.2
		c0.4,0,0.8,0.3,0.9,0.7c0,0,0,0.1,0,0.1c0,0.4-0.4,0.8-0.8,0.8h0c-0.4,0-0.8-0.3-0.9-0.7c0,0,0-0.1,0-0.1
		C113.7,201.6,114.1,201.3,114.5,201.2L114.5,201.2L114.5,201.2z M114.5,203.4c0.4,0,0.8,0.3,0.9,0.7c0,0,0,0.1,0,0.1
		c0,0.4-0.4,0.8-0.8,0.8h0c-0.4,0-0.8-0.3-0.9-0.7c0,0,0-0.1,0-0.1C113.7,203.8,114.1,203.4,114.5,203.4L114.5,203.4z M114.5,205.5
		c0.4,0,0.8,0.3,0.9,0.7c0,0,0,0.1,0,0.1c0,0.4-0.4,0.8-0.8,0.8h0c-0.4,0-0.8-0.3-0.9-0.7c0,0,0-0.1,0-0.1
		C113.7,205.9,114.1,205.6,114.5,205.5L114.5,205.5z M114.5,207.7c0.4,0,0.8,0.3,0.9,0.7c0,0,0,0.1,0,0.1c0,0.4-0.4,0.8-0.8,0.8h0
		c-0.4,0-0.8-0.3-0.9-0.7c0,0,0,0,0-0.1C113.7,208.1,114,207.7,114.5,207.7L114.5,207.7L114.5,207.7z M114.5,209.9
		c0.4,0,0.8,0.3,0.9,0.7c0,0,0,0.1,0,0.1c0,0.4-0.4,0.8-0.8,0.8h0c-0.4,0-0.8-0.3-0.9-0.7c0,0,0-0.1,0-0.1
		C113.7,210.3,114.1,209.9,114.5,209.9C114.5,209.9,114.5,209.9,114.5,209.9L114.5,209.9z M114.5,212c0.4,0,0.8,0.3,0.9,0.7
		c0,0,0,0.1,0,0.1c0,0.4-0.4,0.8-0.8,0.8h0c-0.4,0-0.8-0.3-0.9-0.7c0,0,0-0.1,0-0.1C113.7,212.4,114.1,212.1,114.5,212L114.5,212
		L114.5,212z M114.5,214.2c0.4,0,0.8,0.3,0.9,0.7c0,0,0,0.1,0,0.1c0,0.4-0.4,0.8-0.8,0.8h0c-0.4,0-0.8-0.3-0.9-0.7c0,0,0-0.1,0-0.1
		C113.7,214.6,114.1,214.2,114.5,214.2L114.5,214.2z M114.5,216.3c0.4,0,0.8,0.3,0.9,0.7c0,0,0,0.1,0,0.1c0,0.4-0.4,0.8-0.8,0.8h0
		c-0.4,0-0.8-0.3-0.9-0.7c0,0,0-0.1,0-0.1C113.7,216.7,114.1,216.4,114.5,216.3L114.5,216.3z M114.5,218.5c0.4,0,0.8,0.3,0.9,0.7
		c0,0,0,0.1,0,0.1c0,0.4-0.4,0.8-0.8,0.8h0c-0.4,0-0.8-0.3-0.9-0.7c0,0,0,0,0-0.1C113.7,219,114.1,218.6,114.5,218.5L114.5,218.5
		L114.5,218.5z M116.7,194.8c0.4,0,0.8,0.3,0.9,0.7c0,0,0,0.1,0,0.1c0,0.4-0.4,0.8-0.8,0.8h0c-0.4,0-0.8-0.3-0.9-0.7
		c0,0,0-0.1,0-0.1C115.9,195.2,116.3,194.8,116.7,194.8L116.7,194.8L116.7,194.8z M118.9,188.3c0.4,0,0.8,0.3,0.9,0.7
		c0,0,0,0.1,0,0.1c0,0.4-0.4,0.8-0.8,0.8h0c-0.4,0-0.8-0.3-0.9-0.7c0,0,0-0.1,0-0.1C118,188.7,118.4,188.3,118.9,188.3L118.9,188.3z
		 M118.9,194.8c0.4,0,0.8,0.3,0.9,0.7c0,0,0,0.1,0,0.1c0,0.4-0.4,0.8-0.8,0.8h0c-0.4,0-0.8-0.3-0.9-0.7c0,0,0-0.1,0-0.1
		C118,195.2,118.3,194.8,118.9,194.8L118.9,194.8L118.9,194.8z M118.9,205.6c0.4,0,0.8,0.3,0.9,0.7c0,0,0,0.1,0,0.1
		c0,0.4-0.4,0.8-0.8,0.8h0c-0.4,0-0.8-0.3-0.9-0.7c0,0,0-0.1,0-0.1C118,206,118.4,205.6,118.9,205.6L118.9,205.6L118.9,205.6z
		 M118.9,212.1c0.4,0,0.8,0.3,0.9,0.7c0,0,0,0.1,0,0.1c0,0.4-0.4,0.8-0.8,0.8h0c-0.4,0-0.8-0.3-0.9-0.7c0,0,0-0.1,0-0.1
		C118,212.5,118.4,212.1,118.9,212.1C118.8,212.1,118.9,212.1,118.9,212.1L118.9,212.1z M121,188.3c0.4,0,0.8,0.3,0.9,0.7
		c0,0,0,0.1,0,0.1c0,0.4-0.4,0.8-0.8,0.8h0c-0.4,0-0.8-0.3-0.9-0.7c0,0,0-0.1,0-0.1C120.2,188.7,120.5,188.3,121,188.3L121,188.3z
		 M121,194.8c0.4,0,0.8,0.3,0.9,0.7c0,0,0,0.1,0,0.1c0,0.4-0.4,0.8-0.8,0.8h0c-0.4,0-0.8-0.3-0.9-0.7c0,0,0-0.1,0-0.1
		C120.2,195.2,120.5,194.8,121,194.8C121,194.8,121,194.8,121,194.8L121,194.8z M121,203.5c0.4,0,0.8,0.3,0.9,0.7c0,0,0,0.1,0,0.1
		c0,0.4-0.4,0.8-0.8,0.8h0c-0.4,0-0.8-0.3-0.9-0.7c0,0,0-0.1,0-0.1C120.2,203.9,120.5,203.5,121,203.5
		C121,203.4,121,203.4,121,203.5L121,203.5z M121,212.1c0.4,0,0.8,0.3,0.9,0.7c0,0,0,0.1,0,0.1c0,0.4-0.4,0.8-0.8,0.8h0
		c-0.4,0-0.8-0.3-0.9-0.7c0,0,0-0.1,0-0.1C120.2,212.5,120.5,212.1,121,212.1C121,212.1,121,212.1,121,212.1L121,212.1z
		 M123.2,190.5c0.4,0,0.8,0.3,0.9,0.7c0,0,0,0.1,0,0.1c0,0.4-0.4,0.8-0.8,0.8h0c-0.4,0-0.8-0.3-0.9-0.7c0,0,0-0.1,0-0.1
		C122.3,190.9,122.6,190.5,123.2,190.5C123.1,190.5,123.2,190.5,123.2,190.5L123.2,190.5z M123.2,194.8c0.4,0,0.8,0.3,0.9,0.7
		c0,0,0,0.1,0,0.1c0,0.4-0.4,0.8-0.8,0.8h0c-0.4,0-0.8-0.3-0.9-0.7c0,0,0-0.1,0-0.1C122.3,195.2,122.6,194.8,123.2,194.8
		L123.2,194.8L123.2,194.8z M123.2,199.2c0.4,0,0.8,0.3,0.9,0.7c0,0,0,0.1,0,0.1c0,0.4-0.4,0.8-0.8,0.8h0c-0.4,0-0.8-0.3-0.9-0.7
		c0,0,0-0.1,0-0.1C122.3,199.6,122.6,199.2,123.2,199.2C123.1,199.1,123.2,199.1,123.2,199.2L123.2,199.2z M123.2,201.3
		c0.4,0,0.8,0.3,0.9,0.7c0,0,0,0.1,0,0.1c0,0.4-0.4,0.8-0.8,0.8h0c-0.4,0-0.8-0.3-0.9-0.7c0,0,0-0.1,0-0.1
		C122.3,201.7,122.6,201.3,123.2,201.3C123.1,201.3,123.2,201.3,123.2,201.3L123.2,201.3z M123.2,214.3c0.4,0,0.8,0.3,0.9,0.7
		c0,0,0,0.1,0,0.1c0,0.4-0.4,0.8-0.8,0.8h0c-0.4,0-0.8-0.3-0.9-0.7c0,0,0-0.1,0-0.1C122.3,214.7,122.6,214.3,123.2,214.3
		C123.1,214.2,123.2,214.2,123.2,214.3L123.2,214.3z M125.3,194.8c0.4,0,0.8,0.3,0.9,0.7c0,0,0,0.1,0,0.1c0,0.4-0.4,0.8-0.8,0.8h0
		c-0.4,0-0.8-0.3-0.9-0.7c0,0,0-0.1,0-0.1C124.5,195.2,124.8,194.8,125.3,194.8L125.3,194.8L125.3,194.8z M125.3,216.4
		c0.4,0,0.8,0.3,0.9,0.7c0,0,0,0.1,0,0.1c0,0.4-0.4,0.8-0.8,0.8h0c-0.4,0-0.8-0.3-0.9-0.7c0,0,0-0.1,0-0.1
		C124.5,216.8,124.8,216.4,125.3,216.4L125.3,216.4L125.3,216.4z"/>
	<path class="st2" d="M132.3,197c0.4,0,0.8,0.3,0.9,0.7c0,0,0,0.1,0,0.1c0,0.4-0.4,0.8-0.8,0.8h0c-0.4,0-0.8-0.3-0.9-0.7
		c0,0,0-0.1,0-0.1C131.4,197.4,131.8,197,132.3,197C132.3,197,132.3,197,132.3,197z M132.3,220.7c0.4,0,0.8,0.3,0.9,0.7
		c0,0,0,0.1,0,0.1c0,0.4-0.4,0.8-0.8,0.8h0c-0.4,0-0.8-0.3-0.9-0.7c0,0,0-0.1,0-0.1C131.4,221.1,131.8,220.7,132.3,220.7
		C132.3,220.7,132.3,220.7,132.3,220.7z M134.4,190.5c0.4,0,0.8,0.3,0.9,0.7c0,0,0,0.1,0,0.1c0,0.4-0.4,0.8-0.8,0.8h0
		c-0.4,0-0.8-0.3-0.9-0.7c0,0,0-0.1,0-0.1C133.6,190.9,133.9,190.5,134.4,190.5C134.4,190.5,134.4,190.5,134.4,190.5z M134.4,197
		c0.4,0,0.8,0.3,0.9,0.7c0,0,0,0.1,0,0.1c0,0.4-0.4,0.8-0.8,0.8h0c-0.4,0-0.8-0.3-0.9-0.7c0,0,0-0.1,0-0.1
		C133.6,197.4,133.9,197,134.4,197C134.4,197,134.4,197,134.4,197z M134.4,201.3c0.4,0,0.8,0.3,0.9,0.7c0,0,0,0.1,0,0.1
		c0,0.4-0.4,0.8-0.8,0.8h0c-0.4,0-0.8-0.3-0.9-0.7c0,0,0-0.1,0-0.1C133.6,201.7,133.9,201.3,134.4,201.3
		C134.4,201.3,134.4,201.3,134.4,201.3L134.4,201.3z M134.4,203.4c0.4,0,0.8,0.3,0.9,0.7c0,0,0,0.1,0,0.1c0,0.4-0.4,0.8-0.8,0.8h0
		c-0.4,0-0.8-0.3-0.9-0.7c0,0,0-0.1,0-0.1C133.6,203.8,133.9,203.4,134.4,203.4C134.4,203.4,134.4,203.4,134.4,203.4L134.4,203.4z
		 M134.4,205.6c0.4,0,0.8,0.3,0.9,0.7c0,0,0,0.1,0,0.1c0,0.4-0.4,0.8-0.8,0.8h0c-0.4,0-0.8-0.3-0.9-0.7c0,0,0-0.1,0-0.1
		C133.6,206,133.9,205.6,134.4,205.6C134.4,205.6,134.4,205.6,134.4,205.6z M134.4,207.7c0.4,0,0.8,0.3,0.9,0.7c0,0,0,0.1,0,0.1
		c0,0.4-0.4,0.8-0.8,0.8h0c-0.4,0-0.8-0.3-0.9-0.7c0,0,0-0.1,0-0.1C133.6,208.1,133.9,207.7,134.4,207.7
		C134.4,207.7,134.4,207.7,134.4,207.7z M134.4,209.9c0.4,0,0.8,0.3,0.9,0.7c0,0,0,0.1,0,0.1c0,0.4-0.4,0.8-0.8,0.8h0
		c-0.4,0-0.8-0.3-0.9-0.7c0,0,0-0.1,0-0.1C133.6,210.3,133.9,209.9,134.4,209.9C134.4,209.9,134.4,209.9,134.4,209.9L134.4,209.9z
		 M134.4,212.1c0.4,0,0.8,0.3,0.9,0.7c0,0,0,0.1,0,0.1c0,0.4-0.4,0.8-0.8,0.8h0c-0.4,0-0.8-0.3-0.9-0.7c0,0,0-0.1,0-0.1
		C133.6,212.5,133.9,212.1,134.4,212.1C134.4,212.1,134.4,212.1,134.4,212.1L134.4,212.1z M134.4,214.2c0.4,0,0.8,0.3,0.9,0.7
		c0,0,0,0.1,0,0.1c0,0.4-0.4,0.8-0.8,0.8h0c-0.4,0-0.8-0.3-0.9-0.7c0,0,0-0.1,0-0.1C133.6,214.6,133.9,214.2,134.4,214.2
		C134.4,214.2,134.4,214.2,134.4,214.2L134.4,214.2z M134.4,216.4c0.4,0,0.8,0.3,0.9,0.7c0,0,0,0.1,0,0.1c0,0.4-0.4,0.8-0.8,0.8h0
		c-0.4,0-0.8-0.3-0.9-0.7c0,0,0-0.1,0-0.1C133.6,216.8,133.9,216.4,134.4,216.4C134.4,216.4,134.4,216.4,134.4,216.4L134.4,216.4z
		 M134.4,218.6c0.4,0,0.8,0.3,0.9,0.7c0,0,0,0.1,0,0.1c0,0.4-0.4,0.8-0.8,0.8h0c-0.4,0-0.8-0.3-0.9-0.7c0,0,0-0.1,0-0.1
		C133.6,219,133.9,218.6,134.4,218.6C134.4,218.6,134.4,218.6,134.4,218.6L134.4,218.6z M136.6,186.2c0.4,0,0.8,0.3,0.9,0.7
		c0,0,0,0.1,0,0.1c0,0.4-0.4,0.8-0.8,0.8h0c-0.4,0-0.8-0.3-0.9-0.7c0,0,0-0.1,0-0.1C135.8,186.6,136.1,186.2,136.6,186.2
		C136.6,186.2,136.6,186.2,136.6,186.2L136.6,186.2z M136.6,188.3c0.4,0,0.8,0.3,0.9,0.7c0,0,0,0.1,0,0.1c0,0.4-0.4,0.8-0.8,0.8h0
		c-0.4,0-0.8-0.3-0.9-0.7c0,0,0-0.1,0-0.1C135.8,188.7,136.1,188.4,136.6,188.3L136.6,188.3L136.6,188.3z M136.6,190.5
		c0.4,0,0.8,0.3,0.9,0.7c0,0,0,0.1,0,0.1c0,0.4-0.4,0.8-0.8,0.8h0c-0.4,0-0.8-0.3-0.9-0.7c0,0,0-0.1,0-0.1
		C135.8,190.9,136.1,190.5,136.6,190.5C136.6,190.5,136.6,190.5,136.6,190.5L136.6,190.5z M136.6,192.7c0.4,0,0.8,0.3,0.9,0.7
		c0,0,0,0.1,0,0.1c0,0.4-0.4,0.8-0.8,0.8h0c-0.4,0-0.8-0.3-0.9-0.7c0,0,0-0.1,0-0.1C135.8,193,136.1,192.7,136.6,192.7
		C136.6,192.7,136.6,192.7,136.6,192.7L136.6,192.7z M136.6,194.8c0.4,0,0.8,0.3,0.9,0.7c0,0,0,0.1,0,0.1c0,0.4-0.4,0.8-0.8,0.8h0
		c-0.4,0-0.8-0.3-0.9-0.7c0,0,0-0.1,0-0.1C135.8,195.2,136.1,194.8,136.6,194.8C136.6,194.8,136.6,194.8,136.6,194.8L136.6,194.8z
		 M136.6,197c0.4,0,0.8,0.3,0.9,0.7c0,0,0,0.1,0,0.1c0,0.4-0.4,0.8-0.8,0.8h0c-0.4,0-0.8-0.3-0.9-0.7c0,0,0-0.1,0-0.1
		C135.8,197.4,136.1,197,136.6,197C136.6,197,136.6,197,136.6,197L136.6,197z M136.6,201.3c0.4,0,0.8,0.3,0.9,0.7c0,0,0,0.1,0,0.1
		c0,0.4-0.4,0.8-0.8,0.8h0c-0.4,0-0.8-0.3-0.9-0.7c0,0,0-0.1,0-0.1C135.8,201.7,136.1,201.3,136.6,201.3
		C136.6,201.3,136.6,201.3,136.6,201.3L136.6,201.3z M136.6,207.7c0.4,0,0.8,0.3,0.9,0.7c0,0,0,0.1,0,0.1c0,0.4-0.4,0.8-0.8,0.8h0
		c-0.4,0-0.8-0.3-0.9-0.7c0,0,0-0.1,0-0.1C135.8,208.1,136.1,207.7,136.6,207.7C136.6,207.7,136.6,207.7,136.6,207.7L136.6,207.7z
		 M136.6,214.2c0.4,0,0.8,0.3,0.9,0.7c0,0,0,0.1,0,0.1c0,0.4-0.4,0.8-0.8,0.8h0c-0.4,0-0.8-0.3-0.9-0.7c0,0,0-0.1,0-0.1
		C135.8,214.6,136.1,214.2,136.6,214.2C136.6,214.2,136.6,214.2,136.6,214.2L136.6,214.2z M138.8,190.5c0.4,0,0.8,0.3,0.9,0.7
		c0,0,0,0.1,0,0.1c0,0.4-0.4,0.8-0.8,0.8h0c-0.4,0-0.8-0.3-0.9-0.7c0,0,0-0.1,0-0.1C138,190.9,138.3,190.5,138.8,190.5
		C138.7,190.5,138.7,190.5,138.8,190.5L138.8,190.5z M138.8,197c0.4,0,0.8,0.3,0.9,0.7c0,0,0,0.1,0,0.1c0,0.4-0.4,0.8-0.8,0.8h0
		c-0.4,0-0.8-0.3-0.9-0.7c0,0,0-0.1,0-0.1C138,197.4,138.3,197,138.8,197C138.7,197,138.7,197,138.8,197L138.8,197z M138.8,201.3
		c0.4,0,0.8,0.3,0.9,0.7c0,0,0,0.1,0,0.1c0,0.4-0.4,0.8-0.8,0.8h0c-0.4,0-0.8-0.3-0.9-0.7c0,0,0-0.1,0-0.1
		C138,201.7,138.3,201.3,138.8,201.3C138.7,201.3,138.7,201.3,138.8,201.3L138.8,201.3z M138.8,207.7c0.4,0,0.8,0.3,0.9,0.7
		c0,0,0,0.1,0,0.1c0,0.4-0.4,0.8-0.8,0.8h0c-0.4,0-0.8-0.3-0.9-0.7c0,0,0-0.1,0-0.1C138,208.1,138.3,207.7,138.8,207.7
		C138.7,207.7,138.7,207.7,138.8,207.7L138.8,207.7z M138.8,214.2c0.4,0,0.8,0.3,0.9,0.7c0,0,0,0.1,0,0.1c0,0.4-0.4,0.8-0.8,0.8h0
		c-0.4,0-0.8-0.3-0.9-0.7c0,0,0-0.1,0-0.1C138,214.6,138.3,214.2,138.8,214.2C138.7,214.2,138.7,214.2,138.8,214.2L138.8,214.2z
		 M140.9,190.5c0.4,0,0.8,0.3,0.9,0.7c0,0,0,0.1,0,0.1c0,0.4-0.4,0.8-0.8,0.8h0c-0.4,0-0.8-0.3-0.9-0.7c0,0,0-0.1,0-0.1
		C140.1,190.9,140.5,190.5,140.9,190.5C140.9,190.5,140.9,190.5,140.9,190.5L140.9,190.5z M140.9,197c0.4,0,0.8,0.3,0.9,0.7
		c0,0,0,0.1,0,0.1c0,0.4-0.4,0.8-0.8,0.8h0c-0.4,0-0.8-0.3-0.9-0.7c0,0,0-0.1,0-0.1C140.1,197.4,140.5,197,140.9,197
		C140.9,197,140.9,197,140.9,197L140.9,197z M140.9,201.3c0.4,0,0.8,0.3,0.9,0.7c0,0,0,0.1,0,0.1c0,0.4-0.4,0.8-0.8,0.8h0
		c-0.4,0-0.8-0.3-0.9-0.7c0,0,0-0.1,0-0.1C140.1,201.7,140.5,201.3,140.9,201.3C140.9,201.3,140.9,201.3,140.9,201.3L140.9,201.3z
		 M140.9,207.7c0.4,0,0.8,0.3,0.9,0.7c0,0,0,0.1,0,0.1c0,0.4-0.4,0.8-0.8,0.8h0c-0.4,0-0.8-0.3-0.9-0.7c0,0,0-0.1,0-0.1
		C140.1,208.1,140.4,207.7,140.9,207.7C140.9,207.7,140.9,207.7,140.9,207.7L140.9,207.7z M140.9,214.2c0.4,0,0.8,0.3,0.9,0.7
		c0,0,0,0.1,0,0.1c0,0.4-0.4,0.8-0.8,0.8h0c-0.4,0-0.8-0.3-0.9-0.7c0,0,0-0.1,0-0.1C140.1,214.6,140.5,214.2,140.9,214.2
		C140.9,214.2,140.9,214.2,140.9,214.2L140.9,214.2z M140.9,220.7c0.4,0,0.8,0.3,0.9,0.7c0,0,0,0.1,0,0.1c0,0.4-0.4,0.8-0.8,0.8h0
		c-0.4,0-0.8-0.3-0.9-0.7c0,0,0-0.1,0-0.1C140.1,221.1,140.5,220.7,140.9,220.7C140.9,220.7,140.9,220.7,140.9,220.7L140.9,220.7z
		 M143.1,186.2c0.4,0,0.8,0.3,0.9,0.7c0,0,0,0.1,0,0.1c0,0.4-0.4,0.8-0.8,0.8h0c-0.4,0-0.8-0.3-0.9-0.7c0,0,0-0.1,0-0.1
		C142.3,186.6,142.6,186.2,143.1,186.2C143.1,186.2,143.1,186.2,143.1,186.2L143.1,186.2z M143.1,188.3c0.4,0,0.8,0.3,0.9,0.7
		c0,0,0,0.1,0,0.1c0,0.4-0.4,0.8-0.8,0.8h0c-0.4,0-0.8-0.3-0.9-0.7c0,0,0-0.1,0-0.1C142.3,188.7,142.6,188.4,143.1,188.3
		C143.1,188.3,143.1,188.3,143.1,188.3L143.1,188.3z M143.1,190.5c0.4,0,0.8,0.3,0.9,0.7c0,0,0,0.1,0,0.1c0,0.4-0.4,0.8-0.8,0.8h0
		c-0.4,0-0.8-0.3-0.9-0.7c0,0,0-0.1,0-0.1C142.3,190.9,142.6,190.5,143.1,190.5C143.1,190.5,143.1,190.5,143.1,190.5L143.1,190.5z
		 M143.1,192.7c0.4,0,0.8,0.3,0.9,0.7c0,0,0,0.1,0,0.1c0,0.4-0.4,0.8-0.8,0.8h0c-0.4,0-0.8-0.3-0.9-0.7c0,0,0-0.1,0-0.1
		C142.3,193,142.6,192.7,143.1,192.7C143.1,192.7,143.1,192.7,143.1,192.7L143.1,192.7z M143.1,194.8c0.4,0,0.8,0.3,0.9,0.7
		c0,0,0,0.1,0,0.1c0,0.4-0.4,0.8-0.8,0.8h0c-0.4,0-0.8-0.3-0.9-0.7c0,0,0-0.1,0-0.1C142.3,195.2,142.6,194.8,143.1,194.8
		C143.1,194.8,143.1,194.8,143.1,194.8L143.1,194.8z M143.1,197c0.4,0,0.8,0.3,0.9,0.7c0,0,0,0.1,0,0.1c0,0.4-0.4,0.8-0.8,0.8h0
		c-0.4,0-0.8-0.3-0.9-0.7c0,0,0-0.1,0-0.1C142.3,197.4,142.6,197,143.1,197C143.1,197,143.1,197,143.1,197L143.1,197z M143.1,201.3
		c0.4,0,0.8,0.3,0.9,0.7c0,0,0,0.1,0,0.1c0,0.4-0.4,0.8-0.8,0.8h0c-0.4,0-0.8-0.3-0.9-0.7c0,0,0-0.1,0-0.1
		C142.3,201.7,142.6,201.3,143.1,201.3C143.1,201.3,143.1,201.3,143.1,201.3L143.1,201.3z M143.1,207.7c0.4,0,0.8,0.3,0.9,0.7
		c0,0,0,0.1,0,0.1c0,0.4-0.4,0.8-0.8,0.8h0c-0.4,0-0.8-0.3-0.9-0.7c0,0,0-0.1,0-0.1C142.3,208.1,142.6,207.7,143.1,207.7
		C143.1,207.7,143.1,207.7,143.1,207.7L143.1,207.7z M143.1,214.2c0.4,0,0.8,0.3,0.9,0.7c0,0,0,0.1,0,0.1c0,0.4-0.4,0.8-0.8,0.8h0
		c-0.4,0-0.8-0.3-0.9-0.7c0,0,0-0.1,0-0.1C142.3,214.6,142.6,214.2,143.1,214.2C143.1,214.2,143.1,214.2,143.1,214.2L143.1,214.2z
		 M143.1,220.7c0.4,0,0.8,0.3,0.9,0.7c0,0,0,0.1,0,0.1c0,0.4-0.4,0.8-0.8,0.8h0c-0.4,0-0.8-0.3-0.9-0.7c0,0,0-0.1,0-0.1
		C142.3,221.1,142.6,220.7,143.1,220.7C143.1,220.7,143.1,220.7,143.1,220.7L143.1,220.7z M145.3,190.5c0.4,0,0.8,0.3,0.9,0.7
		c0,0,0,0.1,0,0.1c0,0.4-0.4,0.8-0.8,0.8h0c-0.4,0-0.8-0.3-0.9-0.7c0,0,0-0.1,0-0.1C144.4,190.9,144.8,190.5,145.3,190.5
		C145.2,190.5,145.2,190.5,145.3,190.5L145.3,190.5z M145.3,197c0.4,0,0.8,0.3,0.9,0.7c0,0,0,0.1,0,0.1c0,0.4-0.4,0.8-0.8,0.8h0
		c-0.4,0-0.8-0.3-0.9-0.7c0,0,0-0.1,0-0.1C144.4,197.4,144.8,197,145.3,197C145.2,197,145.2,197,145.3,197L145.3,197z M145.3,201.3
		c0.4,0,0.8,0.3,0.9,0.7c0,0,0,0.1,0,0.1c0,0.4-0.4,0.8-0.8,0.8h0c-0.4,0-0.8-0.3-0.9-0.7c0,0,0-0.1,0-0.1
		C144.4,201.7,144.8,201.3,145.3,201.3C145.2,201.3,145.2,201.3,145.3,201.3L145.3,201.3z M145.3,203.4c0.4,0,0.8,0.3,0.9,0.7
		c0,0,0,0.1,0,0.1c0,0.4-0.4,0.8-0.8,0.8h0c-0.4,0-0.8-0.3-0.9-0.7c0,0,0-0.1,0-0.1C144.4,203.8,144.8,203.4,145.3,203.4
		C145.2,203.4,145.2,203.4,145.3,203.4L145.3,203.4z M145.3,205.6c0.4,0,0.8,0.3,0.9,0.7c0,0,0,0.1,0,0.1c0,0.4-0.4,0.8-0.8,0.8h0
		c-0.4,0-0.8-0.3-0.9-0.7c0,0,0-0.1,0-0.1C144.4,206,144.8,205.6,145.3,205.6C145.2,205.6,145.2,205.6,145.3,205.6L145.3,205.6z
		 M145.3,207.7c0.4,0,0.8,0.3,0.9,0.7c0,0,0,0.1,0,0.1c0,0.4-0.4,0.8-0.8,0.8h0c-0.4,0-0.8-0.3-0.9-0.7c0,0,0-0.1,0-0.1
		C144.4,208.1,144.7,207.7,145.3,207.7C145.2,207.7,145.2,207.7,145.3,207.7L145.3,207.7z M145.3,209.9c0.4,0,0.8,0.3,0.9,0.7
		c0,0,0,0.1,0,0.1c0,0.4-0.4,0.8-0.8,0.8h0c-0.4,0-0.8-0.3-0.9-0.7c0,0,0-0.1,0-0.1C144.4,210.3,144.8,209.9,145.3,209.9
		C145.2,209.9,145.2,209.9,145.3,209.9L145.3,209.9z M145.3,212.1c0.4,0,0.8,0.3,0.9,0.7c0,0,0,0.1,0,0.1c0,0.4-0.4,0.8-0.8,0.8h0
		c-0.4,0-0.8-0.3-0.9-0.7c0,0,0-0.1,0-0.1C144.4,212.5,144.8,212.1,145.3,212.1C145.2,212.1,145.2,212.1,145.3,212.1L145.3,212.1z
		 M145.3,214.2c0.4,0,0.8,0.3,0.9,0.7c0,0,0,0.1,0,0.1c0,0.4-0.4,0.8-0.8,0.8h0c-0.4,0-0.8-0.3-0.9-0.7c0,0,0-0.1,0-0.1
		C144.4,214.6,144.8,214.2,145.3,214.2C145.2,214.2,145.2,214.2,145.3,214.2L145.3,214.2z M145.3,216.4c0.4,0,0.8,0.3,0.9,0.7
		c0,0,0,0.1,0,0.1c0,0.4-0.4,0.8-0.8,0.8h0c-0.4,0-0.8-0.3-0.9-0.7c0,0,0-0.1,0-0.1C144.4,216.8,144.8,216.4,145.3,216.4
		C145.2,216.4,145.2,216.4,145.3,216.4L145.3,216.4z M145.3,218.6c0.4,0,0.8,0.3,0.9,0.7c0,0,0,0.1,0,0.1c0,0.4-0.4,0.8-0.8,0.8h0
		c-0.4,0-0.8-0.3-0.9-0.7c0,0,0-0.1,0-0.1C144.4,218.9,144.8,218.6,145.3,218.6C145.2,218.6,145.2,218.6,145.3,218.6L145.3,218.6z
		 M147.4,197c0.4,0,0.8,0.3,0.9,0.7c0,0,0,0.1,0,0.1c0,0.4-0.4,0.8-0.8,0.8h0c-0.4,0-0.8-0.3-0.9-0.7c0,0,0-0.1,0-0.1
		C146.6,197.4,146.9,197,147.4,197C147.4,197,147.4,197,147.4,197L147.4,197z M149.6,201.3c0.4,0,0.8,0.3,0.9,0.7c0,0,0,0.1,0,0.1
		c0,0.4-0.4,0.8-0.8,0.8h0c-0.4,0-0.8-0.3-0.9-0.7c0,0,0-0.1,0-0.1C148.7,201.7,149.1,201.3,149.6,201.3
		C149.5,201.3,149.5,201.3,149.6,201.3L149.6,201.3z M149.6,220.7c0.4,0,0.8,0.3,0.9,0.7c0,0,0,0.1,0,0.1c0,0.4-0.4,0.8-0.8,0.8h0
		c-0.4,0-0.8-0.3-0.9-0.7c0,0,0-0.1,0-0.1C148.7,221.1,149.1,220.7,149.6,220.7C149.5,220.7,149.5,220.7,149.6,220.7L149.6,220.7z
		 M151.7,199.1c0.4,0,0.8,0.3,0.9,0.7c0,0,0,0.1,0,0.1c0,0.4-0.4,0.8-0.8,0.8h0c-0.4,0-0.8-0.3-0.9-0.7c0,0,0-0.1,0-0.1
		C150.9,199.5,151.2,199.1,151.7,199.1C151.7,199.1,151.7,199.1,151.7,199.1z M151.7,220.7c0.4,0,0.8,0.3,0.9,0.7c0,0,0,0.1,0,0.1
		c0,0.4-0.4,0.8-0.8,0.8h0c-0.4,0-0.8-0.3-0.9-0.7c0,0,0-0.1,0-0.1C150.9,221.1,151.2,220.7,151.7,220.7
		C151.7,220.7,151.7,220.7,151.7,220.7L151.7,220.7z M153.9,194.8c0.4,0,0.8,0.3,0.9,0.7c0,0,0,0.1,0,0.1c0,0.4-0.4,0.8-0.8,0.8h0
		c-0.4,0-0.8-0.3-0.9-0.7c0,0,0-0.1,0-0.1C153,195.2,153.4,194.8,153.9,194.8L153.9,194.8L153.9,194.8z M153.9,197
		c0.4,0,0.8,0.3,0.9,0.7c0,0,0,0.1,0,0.1c0,0.4-0.4,0.8-0.8,0.8h0c-0.4,0-0.8-0.3-0.9-0.7c0,0,0-0.1,0-0.1
		C153,197.4,153.4,197,153.9,197L153.9,197L153.9,197z M153.9,199.1c0.4,0,0.8,0.3,0.9,0.7c0,0,0,0.1,0,0.1c0,0.4-0.4,0.8-0.8,0.8h0
		c-0.4,0-0.8-0.3-0.9-0.7c0,0,0-0.1,0-0.1C153,199.5,153.4,199.1,153.9,199.1L153.9,199.1L153.9,199.1z M153.9,201.3
		c0.4,0,0.8,0.3,0.9,0.7c0,0,0,0.1,0,0.1c0,0.4-0.4,0.8-0.8,0.8h0c-0.4,0-0.8-0.3-0.9-0.7c0,0,0-0.1,0-0.1
		C153,201.7,153.4,201.3,153.9,201.3L153.9,201.3L153.9,201.3z M153.9,203.4c0.4,0,0.8,0.3,0.9,0.7c0,0,0,0.1,0,0.1
		c0,0.4-0.4,0.8-0.8,0.8h0c-0.4,0-0.8-0.3-0.9-0.7c0,0,0-0.1,0-0.1C153,203.8,153.4,203.4,153.9,203.4L153.9,203.4L153.9,203.4z
		 M153.9,218.6c0.4,0,0.8,0.3,0.9,0.7c0,0,0,0.1,0,0.1c0,0.4-0.4,0.8-0.8,0.8h0c-0.4,0-0.8-0.3-0.9-0.7c0,0,0-0.1,0-0.1
		C153,219,153.4,218.6,153.9,218.6L153.9,218.6L153.9,218.6z M156,186.2c0.4,0,0.8,0.3,0.9,0.7c0,0,0,0.1,0,0.1
		c0,0.4-0.4,0.8-0.8,0.8h0c-0.4,0-0.8-0.3-0.9-0.7c0,0,0-0.1,0-0.1C155.2,186.6,155.6,186.2,156,186.2
		C156,186.2,156,186.2,156,186.2L156,186.2z M156,188.3c0.4,0,0.8,0.3,0.9,0.7c0,0,0,0.1,0,0.1c0,0.4-0.4,0.8-0.8,0.8h0
		c-0.4,0-0.8-0.3-0.9-0.7c0,0,0-0.1,0-0.1C155.2,188.7,155.6,188.4,156,188.3C156,188.3,156,188.3,156,188.3L156,188.3z M156,190.5
		c0.4,0,0.8,0.3,0.9,0.7c0,0,0,0.1,0,0.1c0,0.4-0.4,0.8-0.8,0.8h0c-0.4,0-0.8-0.3-0.9-0.7c0,0,0-0.1,0-0.1
		C155.2,190.9,155.6,190.5,156,190.5C156,190.5,156,190.5,156,190.5L156,190.5z M156,192.7c0.4,0,0.8,0.3,0.9,0.7c0,0,0,0.1,0,0.1
		c0,0.4-0.4,0.8-0.8,0.8h0c-0.4,0-0.8-0.3-0.9-0.7c0,0,0-0.1,0-0.1C155.2,193,155.6,192.7,156,192.7C156,192.7,156,192.7,156,192.7
		L156,192.7z M156,205.6c0.4,0,0.8,0.3,0.9,0.7c0,0,0,0.1,0,0.1c0,0.4-0.4,0.8-0.8,0.8h0c-0.4,0-0.8-0.3-0.9-0.7c0,0,0-0.1,0-0.1
		C155.2,206,155.6,205.6,156,205.6C156,205.6,156,205.6,156,205.6L156,205.6z M156,207.8c0.4,0,0.8,0.3,0.9,0.7c0,0,0,0.1,0,0.1
		c0,0.4-0.4,0.8-0.8,0.8h0c-0.4,0-0.8-0.3-0.9-0.7c0,0,0-0.1,0-0.1C155.2,208.2,155.5,207.8,156,207.8
		C156,207.7,156,207.7,156,207.8L156,207.8z M156,214.3c0.4,0,0.8,0.3,0.9,0.7c0,0,0,0.1,0,0.1c0,0.4-0.4,0.8-0.8,0.8h0
		c-0.4,0-0.8-0.3-0.9-0.7c0,0,0-0.1,0-0.1C155.2,214.7,155.6,214.3,156,214.3C156,214.2,156,214.2,156,214.3L156,214.3z M156,216.4
		c0.4,0,0.8,0.3,0.9,0.7c0,0,0,0.1,0,0.1c0,0.4-0.4,0.8-0.8,0.8h0c-0.4,0-0.8-0.3-0.9-0.7c0,0,0-0.1,0-0.1
		C155.2,216.8,155.6,216.4,156,216.4C156,216.4,156,216.4,156,216.4L156,216.4z M158.2,192.7c0.4,0,0.8,0.3,0.9,0.7c0,0,0,0.1,0,0.1
		c0,0.4-0.4,0.8-0.8,0.8h0c-0.4,0-0.8-0.3-0.9-0.7c0,0,0-0.1,0-0.1C157.4,193,157.7,192.7,158.2,192.7
		C158.2,192.7,158.2,192.7,158.2,192.7L158.2,192.7z M158.2,209.9c0.4,0,0.8,0.3,0.9,0.7c0,0,0,0.1,0,0.1c0,0.4-0.4,0.8-0.8,0.8h0
		c-0.4,0-0.8-0.3-0.9-0.7c0,0,0-0.1,0-0.1C157.4,210.3,157.7,209.9,158.2,209.9C158.2,209.9,158.2,209.9,158.2,209.9L158.2,209.9z
		 M158.2,212.1c0.4,0,0.8,0.3,0.9,0.7c0,0,0,0.1,0,0.1c0,0.4-0.4,0.8-0.8,0.8h0c-0.4,0-0.8-0.3-0.9-0.7c0,0,0-0.1,0-0.1
		C157.4,212.5,157.7,212.1,158.2,212.1C158.2,212.1,158.2,212.1,158.2,212.1L158.2,212.1z M160.4,192.7c0.4,0,0.8,0.3,0.9,0.7
		c0,0,0,0.1,0,0.1c0,0.4-0.4,0.8-0.8,0.8h0c-0.4,0-0.8-0.3-0.9-0.7c0,0,0-0.1,0-0.1C159.5,193,159.9,192.7,160.4,192.7
		C160.3,192.7,160.3,192.7,160.4,192.7L160.4,192.7z M160.4,205.6c0.4,0,0.8,0.3,0.9,0.7c0,0,0,0.1,0,0.1c0,0.4-0.4,0.8-0.8,0.8h0
		c-0.4,0-0.8-0.3-0.9-0.7c0,0,0-0.1,0-0.1C159.5,206,159.9,205.6,160.4,205.6C160.3,205.6,160.3,205.6,160.4,205.6L160.4,205.6z
		 M160.4,207.8c0.4,0,0.8,0.3,0.9,0.7c0,0,0,0.1,0,0.1c0,0.4-0.4,0.8-0.8,0.8h0c-0.4,0-0.8-0.3-0.9-0.7c0,0,0-0.1,0-0.1
		C159.5,208.2,159.9,207.8,160.4,207.8C160.3,207.7,160.3,207.7,160.4,207.8L160.4,207.8z M160.4,214.3c0.4,0,0.8,0.3,0.9,0.7
		c0,0,0,0.1,0,0.1c0,0.4-0.4,0.8-0.8,0.8h0c-0.4,0-0.8-0.3-0.9-0.7c0,0,0-0.1,0-0.1C159.5,214.7,159.9,214.3,160.4,214.3
		C160.3,214.2,160.3,214.2,160.4,214.3L160.4,214.3z M160.4,216.4c0.4,0,0.8,0.3,0.9,0.7c0,0,0,0.1,0,0.1c0,0.4-0.4,0.8-0.8,0.8h0
		c-0.4,0-0.8-0.3-0.9-0.7c0,0,0-0.1,0-0.1C159.5,216.8,159.9,216.4,160.4,216.4C160.3,216.4,160.3,216.4,160.4,216.4L160.4,216.4z
		 M162.5,192.7c0.4,0,0.8,0.3,0.9,0.7c0,0,0,0.1,0,0.1c0,0.4-0.4,0.8-0.8,0.8h0c-0.4,0-0.8-0.3-0.9-0.7c0,0,0-0.1,0-0.1
		C161.7,193,162,192.7,162.5,192.7C162.5,192.7,162.5,192.7,162.5,192.7L162.5,192.7z M162.5,194.8c0.4,0,0.8,0.3,0.9,0.7
		c0,0,0,0.1,0,0.1c0,0.4-0.4,0.8-0.8,0.8h0c-0.4,0-0.8-0.3-0.9-0.7c0,0,0-0.1,0-0.1C161.7,195.2,162,194.8,162.5,194.8
		C162.5,194.8,162.5,194.8,162.5,194.8L162.5,194.8z M162.5,197c0.4,0,0.8,0.3,0.9,0.7c0,0,0,0.1,0,0.1c0,0.4-0.4,0.8-0.8,0.8h0
		c-0.4,0-0.8-0.3-0.9-0.7c0,0,0-0.1,0-0.1C161.7,197.4,162,197,162.5,197C162.5,197,162.5,197,162.5,197L162.5,197z M162.5,199.1
		c0.4,0,0.8,0.3,0.9,0.7c0,0,0,0.1,0,0.1c0,0.4-0.4,0.8-0.8,0.8h0c-0.4,0-0.8-0.3-0.9-0.7c0,0,0-0.1,0-0.1
		C161.7,199.5,162,199.1,162.5,199.1L162.5,199.1L162.5,199.1z M162.5,201.3c0.4,0,0.8,0.3,0.9,0.7c0,0,0,0.1,0,0.1
		c0,0.4-0.4,0.8-0.8,0.8h0c-0.4,0-0.8-0.3-0.9-0.7c0,0,0-0.1,0-0.1C161.7,201.7,162,201.3,162.5,201.3
		C162.5,201.3,162.5,201.3,162.5,201.3L162.5,201.3z M162.5,203.4c0.4,0,0.8,0.3,0.9,0.7c0,0,0,0.1,0,0.1c0,0.4-0.4,0.8-0.8,0.8h0
		c-0.4,0-0.8-0.3-0.9-0.7c0,0,0-0.1,0-0.1C161.7,203.8,162,203.4,162.5,203.4C162.5,203.4,162.5,203.4,162.5,203.4L162.5,203.4z
		 M162.5,218.6c0.4,0,0.8,0.3,0.9,0.7c0,0,0,0.1,0,0.1c0,0.4-0.4,0.8-0.8,0.8h0c-0.4,0-0.8-0.3-0.9-0.7c0,0,0-0.1,0-0.1
		C161.7,219,162,218.6,162.5,218.6C162.5,218.6,162.5,218.6,162.5,218.6L162.5,218.6z M164.7,192.7c0.4,0,0.8,0.3,0.9,0.7
		c0,0,0,0.1,0,0.1c0,0.4-0.4,0.8-0.8,0.8h0c-0.4,0-0.8-0.3-0.9-0.7c0,0,0-0.1,0-0.1C163.8,193,164.2,192.7,164.7,192.7
		C164.6,192.7,164.7,192.7,164.7,192.7z M164.7,220.7c0.4,0,0.8,0.3,0.9,0.7c0,0,0,0.1,0,0.1c0,0.4-0.4,0.8-0.8,0.8h0
		c-0.4,0-0.8-0.3-0.9-0.7c0,0,0-0.1,0-0.1C163.8,221.1,164.2,220.7,164.7,220.7C164.6,220.7,164.7,220.7,164.7,220.7z M166.8,192.7
		c0.4,0,0.8,0.3,0.9,0.7c0,0,0,0.1,0,0.1c0,0.4-0.4,0.8-0.8,0.8h0c-0.4,0-0.8-0.3-0.9-0.7c0,0,0-0.1,0-0.1
		C166,193,166.3,192.7,166.8,192.7L166.8,192.7L166.8,192.7z M166.8,220.7c0.4,0,0.8,0.3,0.9,0.7c0,0,0,0.1,0,0.1
		c0,0.4-0.4,0.8-0.8,0.8h0c-0.4,0-0.8-0.3-0.9-0.7c0,0,0-0.1,0-0.1C166,221.1,166.3,220.7,166.8,220.7L166.8,220.7L166.8,220.7z"/>
	<path class="st2" d="M173.8,199.1c0.4,0,0.8,0.3,0.9,0.7c0,0,0,0.1,0,0.1c0,0.4-0.4,0.8-0.8,0.8h0c-0.4,0-0.8-0.3-0.9-0.7
		c0,0,0-0.1,0-0.1C172.9,199.5,173.3,199.1,173.8,199.1L173.8,199.1z M175.9,199.1c0.4,0,0.8,0.3,0.9,0.7c0,0,0,0.1,0,0.1
		c0,0.4-0.4,0.8-0.8,0.8h0c-0.4,0-0.8-0.3-0.9-0.7c0,0,0-0.1,0-0.1C175.1,199.5,175.4,199.1,175.9,199.1L175.9,199.1z M175.9,212.1
		c0.4,0,0.8,0.3,0.9,0.7c0,0,0,0.1,0,0.1c0,0.4-0.4,0.8-0.8,0.8h0c-0.4,0-0.8-0.3-0.9-0.7c0,0,0-0.1,0-0.1
		C175.1,212.5,175.4,212.1,175.9,212.1C175.9,212.1,175.9,212.1,175.9,212.1L175.9,212.1z M175.9,220.7c0.4,0,0.8,0.3,0.9,0.7
		c0,0,0,0.1,0,0.1c0,0.4-0.4,0.8-0.8,0.8h0c-0.4,0-0.8-0.3-0.9-0.7c0,0,0-0.1,0-0.1C175.1,221.1,175.4,220.7,175.9,220.7
		L175.9,220.7L175.9,220.7z M178.1,199.1c0.4,0,0.8,0.3,0.9,0.7c0,0,0,0.1,0,0.1c0,0.4-0.4,0.8-0.8,0.8h0c-0.4,0-0.8-0.3-0.9-0.7
		c0,0,0-0.1,0-0.1C177.3,199.5,177.6,199.1,178.1,199.1L178.1,199.1z M178.1,212.1c0.4,0,0.8,0.3,0.9,0.7c0,0,0,0.1,0,0.1
		c0,0.4-0.4,0.8-0.8,0.8h0c-0.4,0-0.8-0.3-0.9-0.7c0,0,0-0.1,0-0.1C177.3,212.5,177.6,212.1,178.1,212.1
		C178.1,212.1,178.1,212.1,178.1,212.1L178.1,212.1z M178.1,220.7c0.4,0,0.8,0.3,0.9,0.7c0,0,0,0.1,0,0.1c0,0.4-0.4,0.8-0.8,0.8h0
		c-0.4,0-0.8-0.3-0.9-0.7c0,0,0-0.1,0-0.1C177.3,221.1,177.6,220.7,178.1,220.7L178.1,220.7L178.1,220.7z M180.2,199.1
		c0.4,0,0.8,0.3,0.9,0.7c0,0,0,0.1,0,0.1c0,0.4-0.4,0.8-0.8,0.8h0c-0.4,0-0.8-0.3-0.9-0.7c0,0,0-0.1,0-0.1
		C179.4,199.5,179.8,199.1,180.2,199.1L180.2,199.1z M180.2,209.9c0.4,0,0.8,0.3,0.9,0.7c0,0,0,0.1,0,0.1c0,0.4-0.4,0.8-0.8,0.8h0
		c-0.4,0-0.8-0.3-0.9-0.7c0,0,0-0.1,0-0.1C179.4,210.3,179.8,209.9,180.2,209.9L180.2,209.9z M180.2,220.7c0.4,0,0.8,0.3,0.9,0.7
		c0,0,0,0.1,0,0.1c0,0.4-0.4,0.8-0.8,0.8h0c-0.4,0-0.8-0.3-0.9-0.7c0,0,0-0.1,0-0.1C179.4,221.1,179.8,220.7,180.2,220.7
		C180.2,220.7,180.2,220.7,180.2,220.7L180.2,220.7z M182.4,190.5c0.4,0,0.8,0.3,0.9,0.7c0,0,0,0.1,0,0.1c0,0.4-0.4,0.8-0.8,0.8h0
		c-0.4,0-0.8-0.3-0.9-0.7c0,0,0-0.1,0-0.1C181.6,190.9,181.9,190.5,182.4,190.5L182.4,190.5L182.4,190.5z M182.4,192.7
		c0.4,0,0.8,0.3,0.9,0.7c0,0,0,0.1,0,0.1c0,0.4-0.4,0.8-0.8,0.8h0c-0.4,0-0.8-0.3-0.9-0.7c0,0,0-0.1,0-0.1
		C181.6,193,182,192.7,182.4,192.7L182.4,192.7L182.4,192.7z M182.4,194.8c0.4,0,0.8,0.3,0.9,0.7c0,0,0,0.1,0,0.1
		c0,0.4-0.4,0.8-0.8,0.8h0c-0.4,0-0.8-0.3-0.9-0.7c0,0,0-0.1,0-0.1C181.6,195.2,182,194.8,182.4,194.8L182.4,194.8L182.4,194.8z
		 M182.4,197c0.4,0,0.8,0.3,0.9,0.7c0,0,0,0.1,0,0.1c0,0.4-0.4,0.8-0.8,0.8h0c-0.4,0-0.8-0.3-0.9-0.7c0,0,0-0.1,0-0.1
		C181.6,197.4,182,197,182.4,197L182.4,197L182.4,197z M182.4,199.1c0.4,0,0.8,0.3,0.9,0.7c0,0,0,0.1,0,0.1c0,0.4-0.4,0.8-0.8,0.8h0
		c-0.4,0-0.8-0.3-0.9-0.7c0,0,0-0.1,0-0.1C181.6,199.5,182,199.1,182.4,199.1L182.4,199.1L182.4,199.1z M182.4,209.9
		c0.4,0,0.8,0.3,0.9,0.7c0,0,0,0.1,0,0.1c0,0.4-0.4,0.8-0.8,0.8h0c-0.4,0-0.8-0.3-0.9-0.7c0,0,0-0.1,0-0.1
		C181.6,210.3,182,209.9,182.4,209.9L182.4,209.9L182.4,209.9z M182.4,220.7c0.4,0,0.8,0.3,0.9,0.7c0,0,0,0.1,0,0.1
		c0,0.4-0.4,0.8-0.8,0.8h0c-0.4,0-0.8-0.3-0.9-0.7c0,0,0-0.1,0-0.1C181.6,221.1,182,220.7,182.4,220.7
		C182.4,220.7,182.4,220.7,182.4,220.7L182.4,220.7z M184.6,199.1c0.4,0,0.8,0.3,0.9,0.7c0,0,0,0.1,0,0.1c0,0.4-0.4,0.8-0.8,0.8h0
		c-0.4,0-0.8-0.3-0.9-0.7c0,0,0-0.1,0-0.1C183.8,199.5,184.1,199.1,184.6,199.1L184.6,199.1L184.6,199.1z M184.6,205.6
		c0.4,0,0.8,0.3,0.9,0.7c0,0,0,0.1,0,0.1c0,0.4-0.4,0.8-0.8,0.8h0c-0.4,0-0.8-0.3-0.9-0.7c0,0,0-0.1,0-0.1
		C183.8,205.9,184.1,205.6,184.6,205.6L184.6,205.6L184.6,205.6z M184.6,207.7c0.4,0,0.8,0.3,0.9,0.7c0,0,0,0.1,0,0.2
		c0,0.4-0.4,0.8-0.8,0.8h0c-0.4,0-0.8-0.3-0.9-0.7c0,0,0-0.1,0-0.1C183.7,208.2,184,207.8,184.6,207.7
		C184.5,207.7,184.6,207.7,184.6,207.7L184.6,207.7z M184.6,220.7c0.4,0,0.8,0.3,0.9,0.7c0,0,0,0.1,0,0.1c0,0.4-0.4,0.8-0.8,0.8h0
		c-0.4,0-0.8-0.3-0.9-0.7c0,0,0-0.1,0-0.1C183.8,221.1,184.1,220.7,184.6,220.7C184.6,220.7,184.6,220.7,184.6,220.7L184.6,220.7z
		 M186.8,199.1c0.4,0,0.8,0.3,0.9,0.7c0,0,0,0.1,0,0.1c0,0.4-0.4,0.8-0.8,0.8h0c-0.4,0-0.8-0.3-0.9-0.7c0,0,0-0.1,0-0.1
		C185.9,199.5,186.3,199.1,186.8,199.1C186.7,199.1,186.7,199.1,186.8,199.1z M186.8,218.6c0.4,0,0.8,0.3,0.9,0.7c0,0,0,0.1,0,0.1
		c0,0.4-0.4,0.8-0.8,0.8h0c-0.4,0-0.8-0.3-0.9-0.7c0,0,0-0.1,0-0.1C185.9,219,186.3,218.6,186.8,218.6
		C186.7,218.6,186.7,218.6,186.8,218.6L186.8,218.6z M188.9,199.1c0.4,0,0.8,0.3,0.9,0.7c0,0,0,0.1,0,0.1c0,0.4-0.4,0.8-0.8,0.8h0
		c-0.4,0-0.8-0.3-0.9-0.7c0,0,0-0.1,0-0.1C188.1,199.5,188.4,199.1,188.9,199.1C188.9,199.1,188.9,199.1,188.9,199.1z M188.9,218.6
		c0.4,0,0.8,0.3,0.9,0.7c0,0,0,0.1,0,0.1c0,0.4-0.4,0.8-0.8,0.8h0c-0.4,0-0.8-0.3-0.9-0.7c0,0,0-0.1,0-0.1
		C188.1,219,188.4,218.6,188.9,218.6C188.9,218.6,188.9,218.6,188.9,218.6L188.9,218.6z M191.1,186.2c0.4,0,0.8,0.3,0.9,0.7
		c0,0,0,0.1,0,0.1c0,0.4-0.4,0.8-0.8,0.8h0c-0.4,0-0.8-0.3-0.9-0.7c0,0,0-0.1,0-0.1C190.2,186.6,190.5,186.2,191.1,186.2
		C191,186.2,191,186.2,191.1,186.2L191.1,186.2z M191.1,188.3c0.4,0,0.8,0.3,0.9,0.7c0,0,0,0.1,0,0.1c0,0.4-0.4,0.8-0.8,0.8h0
		c-0.4,0-0.8-0.3-0.9-0.7c0,0,0-0.1,0-0.1C190.2,188.7,190.5,188.4,191.1,188.3C191,188.3,191,188.3,191.1,188.3L191.1,188.3z
		 M191.1,190.5c0.4,0,0.8,0.3,0.9,0.7c0,0,0,0.1,0,0.1c0,0.4-0.4,0.8-0.8,0.8h0c-0.4,0-0.8-0.3-0.9-0.7c0,0,0-0.1,0-0.1
		C190.2,190.9,190.6,190.5,191.1,190.5C191,190.5,191,190.5,191.1,190.5L191.1,190.5z M191.1,192.7c0.4,0,0.8,0.3,0.9,0.7
		c0,0,0,0.1,0,0.1c0,0.4-0.4,0.8-0.8,0.8h0c-0.4,0-0.8-0.3-0.9-0.7c0,0,0-0.1,0-0.1C190.2,193,190.5,192.7,191.1,192.7
		C191,192.7,191,192.7,191.1,192.7L191.1,192.7z M191.1,194.8c0.4,0,0.8,0.3,0.9,0.7c0,0,0,0.1,0,0.1c0,0.4-0.4,0.8-0.8,0.8h0
		c-0.4,0-0.8-0.3-0.9-0.7c0,0,0-0.1,0-0.1C190.2,195.2,190.6,194.8,191.1,194.8C191,194.8,191,194.8,191.1,194.8L191.1,194.8z
		 M191.1,197c0.4,0,0.8,0.3,0.9,0.7c0,0,0,0.1,0,0.1c0,0.4-0.4,0.8-0.8,0.8h0c-0.4,0-0.8-0.3-0.9-0.7c0,0,0-0.1,0-0.1
		C190.2,197.4,190.5,197,191.1,197C191,197,191,197,191.1,197L191.1,197z M191.1,199.1c0.4,0,0.8,0.3,0.9,0.7c0,0,0,0.1,0,0.1
		c0,0.4-0.4,0.8-0.8,0.8h0c-0.4,0-0.8-0.3-0.9-0.7c0,0,0-0.1,0-0.1C190.2,199.5,190.6,199.1,191.1,199.1
		C191,199.1,191,199.1,191.1,199.1L191.1,199.1z M191.1,201.3c0.4,0,0.8,0.3,0.9,0.7c0,0,0,0.1,0,0.1c0,0.4-0.4,0.8-0.8,0.8h0
		c-0.4,0-0.8-0.3-0.9-0.7c0,0,0-0.1,0-0.1C190.2,201.7,190.5,201.3,191.1,201.3C191,201.3,191,201.3,191.1,201.3L191.1,201.3z
		 M191.1,203.4c0.4,0,0.8,0.3,0.9,0.7c0,0,0,0.1,0,0.1c0,0.4-0.4,0.8-0.8,0.8h0c-0.4,0-0.8-0.3-0.9-0.7c0,0,0-0.1,0-0.1
		C190.2,203.8,190.6,203.4,191.1,203.4C191,203.4,191,203.4,191.1,203.4L191.1,203.4z M191.1,205.6c0.4,0,0.8,0.3,0.9,0.7
		c0,0,0,0.1,0,0.1c0,0.4-0.4,0.8-0.8,0.8h0c-0.4,0-0.8-0.3-0.9-0.7c0,0,0-0.1,0-0.1C190.2,206,190.6,205.6,191.1,205.6
		C191,205.6,191,205.6,191.1,205.6L191.1,205.6z M191.1,207.8c0.4,0,0.8,0.3,0.9,0.7c0,0,0,0.1,0,0.1c0,0.4-0.4,0.8-0.8,0.8h0
		c-0.4,0-0.8-0.3-0.9-0.7c0,0,0-0.1,0-0.1C190.2,208.2,190.5,207.8,191.1,207.8C191,207.7,191,207.7,191.1,207.8L191.1,207.8z
		 M191.1,209.9c0.4,0,0.8,0.3,0.9,0.7c0,0,0,0.1,0,0.1c0,0.4-0.4,0.8-0.8,0.8h0c-0.4,0-0.8-0.3-0.9-0.7c0,0,0-0.1,0-0.1
		C190.2,210.3,190.5,209.9,191.1,209.9C191,209.9,191,209.9,191.1,209.9L191.1,209.9z M191.1,212.1c0.4,0,0.8,0.3,0.9,0.7
		c0,0,0,0.1,0,0.1c0,0.4-0.4,0.8-0.8,0.8h0c-0.4,0-0.8-0.3-0.9-0.7c0,0,0-0.1,0-0.1C190.2,212.5,190.5,212.1,191.1,212.1
		C191,212.1,191,212.1,191.1,212.1L191.1,212.1z M191.1,218.6c0.4,0,0.8,0.3,0.9,0.7c0,0,0,0.1,0,0.1c0,0.4-0.4,0.8-0.8,0.8h0
		c-0.4,0-0.8-0.3-0.9-0.7c0,0,0-0.1,0-0.1C190.2,219,190.5,218.6,191.1,218.6C191,218.6,191,218.6,191.1,218.6L191.1,218.6z
		 M193.2,190.5c0.4,0,0.8,0.3,0.9,0.7c0,0,0,0.1,0,0.1c0,0.4-0.4,0.8-0.8,0.8h0c-0.4,0-0.8-0.3-0.9-0.7c0,0,0-0.1,0-0.1
		C192.4,190.9,192.7,190.5,193.2,190.5C193.2,190.5,193.2,190.5,193.2,190.5L193.2,190.5z M193.2,199.1c0.4,0,0.8,0.3,0.9,0.7
		c0,0,0,0.1,0,0.1c0,0.4-0.4,0.8-0.8,0.8h0c-0.4,0-0.8-0.3-0.9-0.7c0,0,0-0.1,0-0.1C192.4,199.5,192.7,199.1,193.2,199.1
		C193.2,199.1,193.2,199.1,193.2,199.1L193.2,199.1z M193.2,216.4c0.4,0,0.8,0.3,0.9,0.7c0,0,0,0.1,0,0.1c0,0.4-0.4,0.8-0.8,0.8h0
		c-0.4,0-0.8-0.3-0.9-0.7c0,0,0-0.1,0-0.1C192.4,216.8,192.7,216.4,193.2,216.4C193.2,216.4,193.2,216.4,193.2,216.4L193.2,216.4z
		 M195.4,190.5c0.4,0,0.8,0.3,0.9,0.7c0,0,0,0.1,0,0.1c0,0.4-0.4,0.8-0.8,0.8h0c-0.4,0-0.8-0.3-0.9-0.7c0,0,0-0.1,0-0.1
		C194.5,190.9,194.9,190.5,195.4,190.5C195.3,190.5,195.3,190.5,195.4,190.5L195.4,190.5z M195.4,199.1c0.4,0,0.8,0.3,0.9,0.7
		c0,0,0,0.1,0,0.1c0,0.4-0.4,0.8-0.8,0.8h0c-0.4,0-0.8-0.3-0.9-0.7c0,0,0-0.1,0-0.1C194.5,199.5,194.9,199.1,195.4,199.1
		C195.3,199.1,195.3,199.1,195.4,199.1L195.4,199.1z M195.4,216.4c0.4,0,0.8,0.3,0.9,0.7c0,0,0,0.1,0,0.1c0,0.4-0.4,0.8-0.8,0.8h0
		c-0.4,0-0.8-0.3-0.9-0.7c0,0,0-0.1,0-0.1C194.5,216.8,194.9,216.4,195.4,216.4C195.3,216.4,195.3,216.4,195.4,216.4L195.4,216.4z
		 M197.5,190.5c0.4,0,0.8,0.3,0.9,0.7c0,0,0,0.1,0,0.1c0,0.4-0.4,0.8-0.8,0.8h0c-0.4,0-0.8-0.3-0.9-0.7c0,0,0-0.1,0-0.1
		C196.7,190.9,197.1,190.5,197.5,190.5C197.5,190.5,197.5,190.5,197.5,190.5z M197.5,199.1c0.4,0,0.8,0.3,0.9,0.7c0,0,0,0.1,0,0.1
		c0,0.4-0.4,0.8-0.8,0.8h0c-0.4,0-0.8-0.3-0.9-0.7c0,0,0-0.1,0-0.1C196.7,199.5,197.1,199.1,197.5,199.1
		C197.5,199.1,197.5,199.1,197.5,199.1z M197.5,214.3c0.4,0,0.8,0.3,0.9,0.7c0,0,0,0.1,0,0.1c0,0.4-0.4,0.8-0.8,0.8h0
		c-0.4,0-0.8-0.3-0.9-0.7c0,0,0-0.1,0-0.1C196.7,214.7,197.1,214.3,197.5,214.3C197.5,214.2,197.5,214.2,197.5,214.3L197.5,214.3z
		 M199.7,190.5c0.4,0,0.8,0.3,0.9,0.7c0,0,0,0.1,0,0.1c0,0.4-0.4,0.8-0.8,0.8h0c-0.4,0-0.8-0.3-0.9-0.7c0,0,0-0.1,0-0.1
		C198.9,190.9,199.2,190.5,199.7,190.5C199.7,190.5,199.7,190.5,199.7,190.5L199.7,190.5z M199.7,199.1c0.4,0,0.8,0.3,0.9,0.7
		c0,0,0,0.1,0,0.1c0,0.4-0.4,0.8-0.8,0.8h0c-0.4,0-0.8-0.3-0.9-0.7c0,0,0-0.1,0-0.1C198.9,199.5,199.2,199.1,199.7,199.1
		C199.7,199.1,199.7,199.1,199.7,199.1L199.7,199.1z M199.7,209.9c0.4,0,0.8,0.3,0.9,0.7c0,0,0,0.1,0,0.1c0,0.4-0.4,0.8-0.8,0.8h0
		c-0.4,0-0.8-0.3-0.9-0.7c0,0,0-0.1,0-0.1C198.9,210.3,199.2,209.9,199.7,209.9C199.7,209.9,199.7,209.9,199.7,209.9L199.7,209.9z
		 M199.7,212.1c0.4,0,0.8,0.3,0.9,0.7c0,0,0,0.1,0,0.1c0,0.4-0.4,0.8-0.8,0.8h0c-0.4,0-0.8-0.3-0.9-0.7c0,0,0-0.1,0-0.1
		C198.9,212.5,199.2,212.1,199.7,212.1C199.7,212.1,199.7,212.1,199.7,212.1L199.7,212.1z M201.9,190.5c0.4,0,0.8,0.3,0.9,0.7
		c0,0,0,0.1,0,0.1c0,0.4-0.4,0.8-0.8,0.8h0c-0.4,0-0.8-0.3-0.9-0.7c0,0,0-0.1,0-0.1C201,190.9,201.4,190.5,201.9,190.5
		C201.8,190.5,201.8,190.5,201.9,190.5L201.9,190.5z M201.9,199.1c0.4,0,0.8,0.3,0.9,0.7c0,0,0,0.1,0,0.1c0,0.4-0.4,0.8-0.8,0.8h0
		c-0.4,0-0.8-0.3-0.9-0.7c0,0,0-0.1,0-0.1C201,199.5,201.4,199.2,201.9,199.1C201.8,199.1,201.8,199.1,201.9,199.1L201.9,199.1z
		 M201.9,205.6c0.4,0,0.8,0.3,0.9,0.7c0,0,0,0.1,0,0.1c0,0.4-0.4,0.8-0.8,0.8h0c-0.4,0-0.8-0.3-0.9-0.7c0,0,0-0.1,0-0.1
		C201,206,201.4,205.6,201.9,205.6C201.8,205.6,201.8,205.6,201.9,205.6L201.9,205.6z M201.9,207.7c0.4,0,0.8,0.3,0.9,0.7
		c0,0,0,0.1,0,0.1c0,0.4-0.4,0.8-0.8,0.8h0c-0.4,0-0.8-0.3-0.9-0.7c0,0,0-0.1,0-0.1C201,208.1,201.4,207.8,201.9,207.7
		C201.8,207.7,201.8,207.7,201.9,207.7L201.9,207.7z M204,199.1c0.4,0,0.8,0.3,0.9,0.7c0,0,0,0.1,0,0.1c0,0.4-0.4,0.8-0.8,0.8h0
		c-0.4,0-0.8-0.3-0.9-0.7c0,0,0-0.1,0-0.1C203.2,199.5,203.5,199.1,204,199.1C204,199.1,204,199.1,204,199.1z M206.2,199.1
		c0.4,0,0.8,0.3,0.9,0.7c0,0,0,0.1,0,0.1c0,0.4-0.4,0.8-0.8,0.8h0c-0.4,0-0.8-0.3-0.9-0.7c0,0,0-0.1,0-0.1
		C205.3,199.5,205.7,199.1,206.2,199.1C206.1,199.1,206.1,199.1,206.2,199.1z M208.3,199.1c0.4,0,0.8,0.3,0.9,0.7c0,0,0,0.1,0,0.1
		c0,0.4-0.4,0.8-0.8,0.8h0c-0.4,0-0.8-0.3-0.9-0.7c0,0,0-0.1,0-0.1C207.5,199.5,207.8,199.1,208.3,199.1
		C208.3,199.1,208.3,199.1,208.3,199.1L208.3,199.1z"/>
	<path class="st2" d="M51.3,245.1v-14.5h5.5c0.7,0,1.5,0,2.2,0.1c0.7,0.1,1.2,0.3,1.8,0.7c0.5,0.4,0.9,0.8,1.1,1.4
		c0.8,1.7,0.5,3.7-0.7,5.1c-0.8,0.8-2.2,1.3-4.3,1.3h-3.7v5.9L51.3,245.1z M53.2,237.5h3.7c1.2,0,2.1-0.2,2.6-0.7s0.8-1.2,0.8-1.9
		c0-0.6-0.1-1.1-0.4-1.5c-0.3-0.4-0.7-0.7-1.2-0.8c-0.6-0.1-1.2-0.1-1.8-0.1h-3.7L53.2,237.5z"/>
	<path class="st2" d="M66.3,245.1v-14.5h1.9v12.8h7.2v1.7H66.3z"/>
	<path class="st2" d="M77.7,245.1l5.6-14.5h2.1l5.9,14.5h-2.2l-1.7-4.4h-6.1l-1.6,4.4H77.7z M81.9,239.1h4.9l-1.5-4
		c-0.4-1.2-0.8-2.2-1-3c-0.2,0.9-0.4,1.9-0.8,2.8L81.9,239.1z"/>
	<path class="st2" d="M94.5,245.1v-14.5h2l7.6,11.4v-11.4h1.8v14.5h-2l-7.6-11.4v11.4H94.5z"/>
	<path class="st2" d="M110.8,245.1v-14.5h10.5v1.7h-8.6v4.4h8.1v1.7h-8.1v4.9h8.9v1.7L110.8,245.1z"/>
	<path class="st2" d="M129.6,245.1v-12.8h-4.8v-1.7h11.5v1.7h-4.8v12.8H129.6z"/>
	<path class="st2" d="M149.4,245.1l-3.9-14.5h2l2.2,9.5c0.2,1,0.4,2,0.6,3c0.4-1.5,0.6-2.5,0.7-2.7l2.8-9.8h2.3l2.1,7.3
		c0.5,1.7,0.9,3.4,1.1,5.1c0.2-0.9,0.4-2,0.7-3.2l2.3-9.3h1.9l-4,14.5h-1.8l-3.1-11c-0.3-0.9-0.4-1.5-0.4-1.7
		c-0.1,0.7-0.3,1.2-0.4,1.7l-3.1,11H149.4z"/>
	<path class="st2" d="M165.2,245.1l5.6-14.5h2.1l5.9,14.5h-2.2l-1.7-4.4h-6.1l-1.6,4.4H165.2z M169.5,239.1h4.9l-1.5-4
		c-0.5-1.2-0.8-2.2-1-3c-0.2,0.9-0.4,1.9-0.8,2.8L169.5,239.1z"/>
	<path class="st2" d="M181.9,245.1v-14.5h1.9v12.8h7.2v1.7H181.9z"/>
	<path class="st2" d="M194.9,245.1v-14.5h1.9v7.2l7.2-7.2h2.6l-6.1,5.9l6.4,8.6h-2.6l-5.2-7.3l-2.4,2.3v5H194.9z"/>
</g>
</svg>
